<?xml version="1.0" encoding="UTF-8"?>
<svg width="20px" height="20px" viewBox="0 0 20 20" version="1.1" xmlns="http://www.w3.org/2000/svg" xmlns:xlink="http://www.w3.org/1999/xlink">
    <title>discord</title>
    <g id="discord" stroke="none" stroke-width="1" fill="none" fill-rule="evenodd">
        <path d="M6.84910863,9.0992 C6.18310863,9.0992 5.64110863,9.7342 5.64110863,10.5142 C5.64110863,11.2942 6.18310863,11.9292 6.84910863,11.9292 C7.51610863,11.9292 8.05710863,11.2942 8.05710863,10.5142 C8.06310863,10.1022 7.91410863,9.7162 7.64810863,9.4462 C7.42810863,9.2222 7.14410863,9.0992 6.84910863,9.0992 L6.84910863,9.0992 Z M6.84910863,12.9292 C5.63210863,12.9292 4.64110863,11.8462 4.64110863,10.5142 C4.64110863,9.1822 5.63210863,8.0992 6.84910863,8.0992 C7.41410863,8.0992 7.95110863,8.3282 8.36010863,8.7442 C8.81310863,9.2032 9.06710863,9.8512 9.05710863,10.5212 C9.05710863,11.8462 8.06710863,12.9292 6.84910863,12.9292 L6.84910863,12.9292 Z M13.1631086,9.0992 C12.4971086,9.0992 11.9561086,9.7342 11.9561086,10.5142 C11.9561086,11.2942 12.4971086,11.9292 13.1631086,11.9292 C13.8411086,11.9292 14.3711086,11.3072 14.3711086,10.5142 C14.3771086,10.1022 14.2271086,9.7152 13.9621086,9.4462 C13.7411086,9.2222 13.4581086,9.0992 13.1631086,9.0992 L13.1631086,9.0992 Z M13.1631086,12.9292 C11.9461086,12.9292 10.9551086,11.8462 10.9551086,10.5142 C10.9551086,9.1822 11.9461086,8.0992 13.1631086,8.0992 C13.7271086,8.0992 14.2641086,8.3282 14.6741086,8.7432 C15.1261086,9.2032 15.3801086,9.8502 15.3711086,10.5212 C15.3711086,11.8462 14.3811086,12.9292 13.1631086,12.9292 L13.1631086,12.9292 Z M1.05910863,14.3472 C2.33610863,15.2632 3.69810863,15.9592 5.19410863,16.4562 C5.38010863,16.1872 5.55410863,15.9092 5.71310863,15.6262 C5.34910863,15.4672 4.98910863,15.2852 4.62110863,15.0742 L4.38510863,14.9382 L4.34010863,14.6172 C4.33010863,14.4302 4.41410863,14.2502 4.56410863,14.1382 C4.65810863,14.0692 4.75110863,13.9952 4.84110863,13.9222 L5.08110863,13.7252 L5.42610863,13.8452 C8.39010863,15.1982 11.6331086,15.1982 14.5591086,13.8462 L14.8411086,13.7162 L15.1441086,13.9182 C15.2381086,13.9952 15.3311086,14.0682 15.4251086,14.1382 L15.6411086,14.2992 L15.6501086,14.6212 C15.6391086,14.8092 15.5351086,14.9772 15.3731086,15.0722 C15.0191086,15.2792 14.6591086,15.4622 14.2811086,15.6252 C14.4411086,15.9062 14.6141086,16.1832 14.7991086,16.4552 C16.2911086,15.9622 17.6501086,15.2692 18.9391086,14.3462 C19.2561086,10.6432 18.3791086,7.3082 16.2641086,4.1532 C15.1991086,3.6762 14.0851086,3.3222 12.9451086,3.1002 C12.8311086,3.3232 12.7201086,3.5632 12.6351086,3.7652 L12.4831086,4.1212 L12.1001086,4.0642 C10.6921086,3.8532 9.28210863,3.8532 7.90610863,4.0632 L7.51910863,4.1222 L7.36910863,3.7622 C7.28310863,3.5572 7.16910863,3.3202 7.05410863,3.1002 C5.91510863,3.3212 4.79810863,3.6752 3.73210863,4.1532 C1.63110863,7.3382 0.756108629,10.6752 1.05910863,14.3472 L1.05910863,14.3472 Z M14.4471086,17.6152 L14.1701086,17.3012 C13.7901086,16.7722 13.4521086,16.2212 13.1611086,15.6602 L13.0591086,15.4622 L13.0621086,15.4522 C11.0431086,15.9992 8.94810863,15.9962 6.92010863,15.4462 L6.82910863,15.6592 C6.54610863,16.2202 6.20510863,16.7752 5.81710863,17.3052 L5.60410863,17.5952 L5.19510863,17.5072 C3.42110863,16.9552 1.82010863,16.1472 0.307108629,15.0362 L0.123108629,14.9012 L0.0801086292,14.6312 C-0.295891371,10.6052 0.649108629,6.9612 2.97010863,3.4942 L3.05210863,3.3712 L3.21410863,3.2912 C4.47410863,2.7122 5.81710863,2.2952 7.19410863,2.0582 L7.53410863,1.9992 L7.77110863,2.3262 C7.89710863,2.5482 8.02310863,2.7932 8.13210863,3.0222 C9.36410863,2.8672 10.6181086,2.8672 11.8701086,3.0232 C11.9801086,2.7872 12.1041086,2.5412 12.2201086,2.3352 L12.3941086,2.0252 L12.8061086,2.0582 C14.1751086,2.2952 15.5161086,2.7102 16.7881086,3.2932 L16.9461086,3.3612 L17.0531086,3.5412 C19.3301086,6.8862 20.3041086,10.6362 19.9171086,14.6372 L19.8961086,14.8552 L19.6971086,15.0312 C18.1751086,16.1492 16.5721086,16.9572 14.7901086,17.5082 L14.4471086,17.6152 Z" id="Fill-1" fill="#000000"></path>
    </g>
</svg>