<?xml version="1.0" encoding="UTF-8"?>
<svg width="20px" height="20px" viewBox="0 0 20 20" version="1.1" xmlns="http://www.w3.org/2000/svg" xmlns:xlink="http://www.w3.org/1999/xlink">
    <title>facebook-2</title>
    <g id="facebook-2" stroke="none" stroke-width="1" fill="none" fill-rule="evenodd">
        <path d="M14.8999156,0 C15.1453754,0 15.3495239,0.176875161 15.3918599,0.410124368 L15.3999156,0.5 L15.3999156,4.72222222 C15.3999156,4.96768211 15.2230404,5.17183059 14.9897912,5.21416655 L14.8999156,5.22222222 L11.306,5.222 L11.177,5.351 L11.177,7.6 L15.3222222,7.6 C15.833406,7.6 16.2069158,8.01366327 16.1669683,8.50539267 L16.1519792,8.61183585 L15.4731854,12.0058025 C15.3891596,12.4290723 15.0182812,12.7623668 14.5944926,12.8149765 L14.4777778,12.8222222 L11.177,12.822 L11.1777778,19.0777778 C11.1777778,19.5498306 10.8209312,19.9403953 10.3629279,19.9937818 L10.2555556,20 L6.87777778,20 C6.40572494,20 6.01516025,19.6431534 5.96177373,19.1851501 L5.95555556,19.0777778 L5.955,12.822 L3.92222222,12.8222222 C3.45016938,12.8222222 3.0596047,12.4653756 3.00621817,12.0073724 L3,11.9 L3,8.52222222 C3,8.05016938 3.35684663,7.6596047 3.81484987,7.60621817 L3.92222222,7.6 L5.958,7.6 L5.97371849,4.75623855 C5.97362667,1.9592271 7.69216604,2.84217094e-14 10.7330044,2.84217094e-14 L14.8999156,0 Z M14.399,0.999 L10.7330044,1 L10.7330044,1 C8.27646778,1 6.97440103,2.48359333 6.97362701,4.75692709 L6.97370373,4.76167256 L6.95554817,8.10271701 C6.9552461,8.15830563 6.94588394,8.21172617 6.92886894,8.26158665 C6.91226389,8.31012464 6.88861859,8.35500256 6.85908456,8.39529351 C6.80607839,8.46752486 6.73442701,8.52483817 6.65125181,8.56025362 C6.64343006,8.563576 6.63581098,8.56659462 6.62810279,8.5694288 L6.65125181,8.56025362 C6.59830357,8.58279863 6.54068539,8.59646969 6.48027576,8.59940868 L6.45555556,8.6 L6.45283855,8.60000016 L3.999,8.599 L3.999,11.822 L6.45555556,11.8222222 L6.45555556,11.8222222 C6.70101544,11.8222222 6.90516393,11.9990974 6.94749989,12.2323466 L6.95555556,12.3222222 L6.955,19 L10.177,19 L10.1777778,12.3222222 C10.1777778,12.0767623 10.3546529,11.8726139 10.5879021,11.8302779 L10.6777778,11.8222222 L14.4777778,11.8222222 C14.4737625,11.8222222 14.4821685,11.8142413 14.4878588,11.8107344 L15.134,8.599 L10.6777778,8.6 C10.5243653,8.6 10.3870902,8.53090814 10.2953715,8.42214364 L10.245958,8.35235957 C10.2170303,8.30297686 10.196333,8.24818793 10.185749,8.18987563 L10.1776933,8.1 L10.1776933,5.14444444 C10.1776933,5.03835785 10.2114075,4.93574728 10.2729025,4.8509372 L10.3241399,4.79089105 L10.7463622,4.36866883 C10.8213767,4.29365428 10.9177729,4.24493718 11.0212262,4.22845092 L11.0999156,4.22222222 L14.399,4.222 L14.399,0.999 Z" id="Combined-Shape" fill="#FFFFFF" fill-rule="nonzero"></path>
    </g>
</svg>