<?xml version="1.0" encoding="UTF-8"?>
<svg width="20px" height="20px" viewBox="0 0 20 20" version="1.1" xmlns="http://www.w3.org/2000/svg" xmlns:xlink="http://www.w3.org/1999/xlink">
    <title>mail</title>
    <g id="mail" stroke="none" stroke-width="1" fill="none" fill-rule="evenodd">
        <path d="M9.99117857,0 C15.4143698,0 19.8297246,4.32792003 19.9778397,9.72015868 L19.9903858,10.5363825 C20.0199284,11.8395823 19.9763381,12.5644249 19.7292789,13.4343541 C19.4947038,14.2603249 19.0938756,14.9949215 18.4902774,15.6339219 C16.9545636,17.2618656 13.7138233,16.5276974 13.5639217,14.2376393 L13.5585357,14.0714286 L13.5583939,12.8690574 C12.7202264,13.9072238 11.4372133,14.5714286 9.99972857,14.5714286 C7.47547905,14.5714286 5.4283,12.5242495 5.4283,10 C5.4283,7.47575048 7.47547905,5.42857143 9.99972857,5.42857143 C11.4372133,5.42857143 12.7202264,6.09277625 13.5583939,7.13094257 L13.5585357,5.92857143 L14.5585357,5.92857143 L14.5595041,9.67121383 C14.5672288,9.77980682 14.5711571,9.88944621 14.5711571,10 C14.5711571,10.1105538 14.5672288,10.2201932 14.5595041,10.3287862 L14.5585357,14.0714286 C14.5585357,15.4861184 16.7557012,16.0153721 17.7630926,14.9474803 C18.252121,14.4297692 18.5751865,13.8376882 18.7673203,13.1611586 C18.961354,12.4779394 19.0103187,11.8756703 18.9960426,10.8497309 L18.9816786,10 C18.9816786,5.03049804 14.9553562,1 9.99117857,1 C5.0264218,1 1,5.03039851 1,10 C1,14.8808586 4.88390496,18.8557577 9.72612468,18.996162 L9.99117857,19 L9.99117857,20 C4.47391594,20 0,15.5216654 0,10 C0,4.47833463 4.47391594,0 9.99117857,0 Z M9.99972857,6.42857143 C8.0277638,6.42857143 6.4283,8.02803523 6.4283,10 C6.4283,11.9719648 8.0277638,13.5714286 9.99972857,13.5714286 C11.8736546,13.5714286 13.4118298,12.1261947 13.5595418,10.2899651 L13.5595418,9.71003488 C13.4118298,7.87380529 11.8736546,6.42857143 9.99972857,6.42857143 Z" id="Combined-Shape" fill="#000000" fill-rule="nonzero"></path>
    </g>
</svg>