<?xml version="1.0" encoding="UTF-8"?>
<svg width="20px" height="20px" viewBox="0 0 20 20" version="1.1" xmlns="http://www.w3.org/2000/svg" xmlns:xlink="http://www.w3.org/1999/xlink">
    <title>medium</title>
    <g id="medium" stroke="none" stroke-width="1" fill="none" fill-rule="evenodd">
        <path d="M18.5576,6.109 C18.3526,6.683 18.1156,7.967 18.1156,9.895 C18.1156,11.824 18.3526,13.108 18.5576,13.681 C18.7626,13.108 18.9996,11.824 18.9996,9.895 C18.9996,7.966 18.7626,6.682 18.5576,6.109 M14.4156,5.316 C13.3856,5.316 12.2366,7.196 12.2366,9.895 C12.2366,12.594 13.3856,14.475 14.4166,14.475 C15.4476,14.475 16.5956,12.594 16.5956,9.895 C16.5956,7.196 15.4466,5.316 14.4156,5.316 M5.8586,5 C3.1796,5 0.9996,7.196 0.9996,9.895 C0.9996,12.594 3.1796,14.79 5.8586,14.79 C8.5376,14.79 10.7176,12.594 10.7176,9.895 C10.7176,7.196 8.5376,5 5.8586,5 M5.8586,15.79 C2.6286,15.79 -0.0004,13.146 -0.0004,9.895 C-0.0004,6.644 2.6286,4 5.8586,4 C8.4386,4 10.6346,5.686 11.4136,8.021 C11.8436,5.841 13.0096,4.316 14.4156,4.316 C15.6766,4.316 16.7436,5.54 17.2606,7.364 C17.4316,6.055 17.7956,4.845 18.5576,4.845 C19.8596,4.845 19.9996,8.377 19.9996,9.895 C19.9996,11.414 19.8596,14.945 18.5576,14.945 C17.7956,14.945 17.4316,13.735 17.2606,12.427 C17.1286,12.896 16.9576,13.331 16.7526,13.72 C16.1566,14.852 15.3266,15.475 14.4166,15.475 C13.0096,15.475 11.8436,13.949 11.4136,11.769 C10.6346,14.104 8.4386,15.79 5.8586,15.79" id="Fill-1" fill="#000000"></path>
    </g>
</svg>