<?xml version="1.0" encoding="UTF-8"?>
<svg width="20px" height="20px" viewBox="0 0 20 20" version="1.1" xmlns="http://www.w3.org/2000/svg" xmlns:xlink="http://www.w3.org/1999/xlink">
    <title>telegram-2</title>
    <g id="telegram-2" stroke="none" stroke-width="1" fill="none" fill-rule="evenodd">
        <path d="M19.6544108,0.0249205806 L19.680916,0.0350346363 C19.683613,0.0360805451 19.6863032,0.0371508975 19.6889861,0.0382457109 C19.7088963,0.0460654788 19.7282792,0.0556142231 19.7469652,0.0663327464 C19.7552372,0.0711340145 19.7635239,0.0761711547 19.771695,0.0814733471 C19.7903371,0.0936133094 19.8080983,0.106898667 19.8249355,0.121271815 C19.8281213,0.124000826 19.8313153,0.126803635 19.8344828,0.129654399 C19.8786598,0.16967808 19.9145046,0.214916458 19.9418541,0.265398979 C19.9431462,0.269401397 19.9451972,0.273365428 19.947192,0.277351397 C19.9708592,0.322146314 19.9870317,0.371090472 19.9950439,0.422767524 C19.9948065,0.429101047 19.995603,0.434810143 19.9963009,0.440529971 C19.9999539,0.461502489 20.0010973,0.483625805 20.000703,0.506110866 C19.9999198,0.512316532 19.9997648,0.518005627 19.9995132,0.523692203 C19.9997335,0.530402983 19.9992093,0.537541165 19.998528,0.544710117 L19.9941836,0.577720491 C19.9921244,0.591119897 19.9895176,0.604457499 19.9863613,0.61769771 L19.9839989,0.626782551 L15.397792,18.3164377 C15.3197015,18.6176437 14.9931623,18.7687898 14.718694,18.6515153 L14.6453558,18.6127874 L10.611,16.045 L8.12292212,19.7786516 C7.8656605,20.164544 7.28566419,20.0179218 7.21416958,19.5904631 L7.20689697,19.5013015 L7.20689697,13.6047497 L7.207014,13.590855 C7.20727536,13.5811199 7.20782162,13.5713785 7.20865561,13.5616436 L7.20689697,13.6047497 C7.20689697,13.5711451 7.21021212,13.5383148 7.21653323,13.506568 C7.21979483,13.4901084 7.2238656,13.4740007 7.22877304,13.4580402 C7.23169082,13.4485136 7.23480714,13.4393366 7.23817823,13.4302835 C7.24794156,13.404142 7.25964445,13.3792114 7.27353417,13.3551511 C7.27405207,13.3542915 7.27460532,13.3533398 7.27516163,13.3523902 C7.27952347,13.3450489 7.28031549,13.3437533 7.281114,13.3424604 C7.28424427,13.3376069 7.28465441,13.3369591 7.28506622,13.336312 L7.29837121,13.3163962 C7.3093463,13.3008756 7.32118359,13.2860079 7.33381333,13.271863 L7.3352499,13.2702674 L17.362,2.128 L1.60000042,10.0103015 L6.25881816,12.4342921 C6.47656259,12.5475967 6.57601444,12.7987356 6.50590209,13.0251904 L6.47156149,13.1086365 C6.35825696,13.3263809 6.10711805,13.4258327 5.88066323,13.3557204 L5.79721716,13.3213798 L0.26919992,10.4448453 C-0.0651462245,10.2708664 -0.0872891157,9.8146811 0.198526397,9.60190634 L0.276393619,9.55408788 L19.2763936,0.0540878762 L19.3191697,0.0350312312 C19.3293004,0.0311116149 19.3395373,0.0275317606 19.3498625,0.0242926148 L19.2763936,0.0540878762 C19.4043634,-0.00989701993 19.5376116,-0.013757826 19.6544108,0.0249205806 Z M8.206,14.515 L8.20600042,17.8493015 L9.767,15.508 L8.206,14.515 Z M18.502,2.356 L8.474,13.499 L14.6020004,17.3993015 L18.502,2.356 Z" id="Combined-Shape" fill="#FFFFFF" fill-rule="nonzero"></path>
    </g>
</svg>