<?xml version="1.0" encoding="UTF-8"?>
<svg width="20px" height="20px" viewBox="0 0 20 20" version="1.1" xmlns="http://www.w3.org/2000/svg" xmlns:xlink="http://www.w3.org/1999/xlink">
    <title>dribbble</title>
    <g id="dribbble" stroke="none" stroke-width="1" fill="none" fill-rule="evenodd">
        <path d="M13.682,18.2036 C13.91,15.4196 13.584,13.0006 12.949,10.9336 C14.666,10.5816 16.658,10.4416 18.967,10.6486 C18.724,14.0186 16.624,16.8776 13.682,18.2036 M3.95,16.6436 C4.494,15.7766 6.835,12.5226 11.967,11.1526 C12.62,13.2446 12.945,15.7206 12.643,18.6026 C11.807,18.8596 10.919,18.9996 10,18.9996 C7.669,18.9996 5.55,18.1016 3.95,16.6436 M1.028,9.4496 C2.339,9.7396 3.569,9.8756 4.71,9.8756 C7.145,9.8756 9.193,9.2936 10.873,8.4776 C11.154,9.0236 11.414,9.6096 11.648,10.2296 C6.617,11.6246 4.049,14.7516 3.239,15.9216 C1.849,14.3366 1,12.2676 1,9.9996 C1,9.8136 1.016,9.6326 1.028,9.4496 M5.426,2.2626 C5.924,2.5826 8.432,4.3046 10.381,7.5916 C8.066,8.6996 5.005,9.3206 1.144,8.4446 C1.605,5.8146 3.208,3.5786 5.426,2.2626 M15.722,3.0576 C15.226,3.7866 13.756,5.6936 11.267,7.1276 C9.563,4.2406 7.442,2.4756 6.43,1.7426 C7.526,1.2666 8.732,0.9996 10,0.9996 C12.171,0.9996 14.165,1.7726 15.722,3.0576 M18.982,9.6496 C16.555,9.4396 14.452,9.6066 12.632,10.0026 C12.371,9.2946 12.078,8.6296 11.759,8.0126 C14.31,6.5436 15.85,4.6146 16.459,3.7466 C17.952,5.2886 18.893,7.3606 18.982,9.6496 M10,-0.0004 C4.477,-0.0004 -1.77635684e-14,4.4766 -1.77635684e-14,9.9996 C-1.77635684e-14,15.5226 4.477,19.9996 10,19.9996 C15.523,19.9996 20,15.5226 20,9.9996 C20,4.4766 15.523,-0.0004 10,-0.0004" id="Fill-1" fill="#000000"></path>
    </g>
</svg>