<?xml version="1.0" encoding="UTF-8"?>
<svg width="20px" height="20px" viewBox="0 0 20 20" version="1.1" xmlns="http://www.w3.org/2000/svg" xmlns:xlink="http://www.w3.org/1999/xlink">
    <title>linkedin</title>
    <g id="linkedin" stroke="none" stroke-width="1" fill="none" fill-rule="evenodd">
        <path d="M2.4138,3.8276 C1.6338,3.8276 0.9998,3.1936 0.9998,2.4136 C0.9998,1.6346 1.6338,0.9996 2.4138,0.9996 C3.1928,0.9996 3.8278,1.6346 3.8278,2.4136 C3.8278,3.1936 3.1928,3.8276 2.4138,3.8276 L2.4138,3.8276 Z M2.4138,-0.0004 C1.0808,-0.0004 -0.0002,1.0806 -0.0002,2.4136 C-0.0002,3.7466 1.0808,4.8276 2.4138,4.8276 C3.7468,4.8276 4.8278,3.7466 4.8278,2.4136 C4.8278,1.0806 3.7468,-0.0004 2.4138,-0.0004 L2.4138,-0.0004 Z M18.9998,18.9996 L16.8618,18.9996 L16.8618,13.5036 C16.8618,12.1556 16.8618,8.9996 13.5998,8.9996 C10.3788,8.9996 10.3788,11.8566 10.3788,13.3916 L10.3788,18.9996 L8.2418,18.9996 L8.2418,7.5516 L10.3788,7.5516 L10.3788,7.9176 C10.3788,8.3066 10.6058,8.6606 10.9588,8.8246 C11.0938,8.8876 11.2368,8.9176 11.3788,8.9176 C11.6118,8.9176 11.8418,8.8366 12.0258,8.6806 C12.9248,7.9176 13.4338,7.5516 15.1728,7.5516 C18.1418,7.5516 18.9998,8.7006 18.9998,12.6726 L18.9998,18.9996 Z M15.1728,6.5516 C13.1558,6.5516 12.4298,7.0266 11.3788,7.9176 L11.3788,6.5516 L7.2418,6.5516 L7.2418,19.9996 L11.3788,19.9996 L11.3788,13.3916 C11.3788,11.6596 11.4428,9.9996 13.5998,9.9996 C15.7228,9.9996 15.8618,11.7386 15.8618,13.5036 L15.8618,19.9996 L19.9998,19.9996 L19.9998,12.6726 C19.9998,9.0746 19.3658,6.5516 15.1728,6.5516 L15.1728,6.5516 Z M0.9998,19.0006 L3.8278,19.0006 L3.8278,7.5216 L0.9998,7.5216 L0.9998,19.0006 Z M-0.0002,19.9996 L4.8278,19.9996 L4.8278,6.5206 L-0.0002,6.5206 L-0.0002,19.9996 Z" id="Fill-1" fill="#000000"></path>
    </g>
</svg>