<?xml version="1.0" encoding="UTF-8"?>
<svg width="20px" height="20px" viewBox="0 0 20 20" version="1.1" xmlns="http://www.w3.org/2000/svg" xmlns:xlink="http://www.w3.org/1999/xlink">
    <title>twitter</title>
    <g id="twitter" stroke="none" stroke-width="1" fill="none" fill-rule="evenodd">
        <path d="M13.6538236,2 C11.2262258,2 9.25630249,3.96995645 9.25630249,6.39752113 L9.26354759,6.65493827 L9.27048246,6.735 L9.21650926,6.73098529 C6.45811177,6.41837852 3.95693364,5.03593564 2.21275958,2.89560521 C1.99199508,2.6246982 1.56850984,2.65805748 1.39288543,2.96018931 C1.00545235,3.6267018 0.797949365,4.38406033 0.797949365,5.17014911 L0.804097541,5.40387601 C0.840865586,6.10158667 1.04145619,6.7663721 1.37646377,7.35246919 L1.43848246,7.456 L1.50896279,7.48795409 C1.17571004,7.30346739 0.766797309,7.54448611 0.766797309,7.92539652 L0.772073376,8.19008059 C0.831650085,9.4104174 1.39205171,10.5130067 2.26365626,11.2792075 L2.41748246,11.408 L2.41028366,11.4114475 C2.20198935,11.5158648 2.07674083,11.7622361 2.15688212,12.0122806 L2.22733232,12.2149241 C2.67812208,13.416092 3.62940208,14.3486431 4.80551774,14.7891117 L4.95248246,14.839 C3.8828557,15.4239326 2.6821975,15.7362523 1.43120039,15.7362523 C1.14805045,15.7362523 0.859309195,15.7190721 0.556681305,15.6854572 C0.0312335027,15.6270923 -0.213474885,16.3178183 0.23152465,16.6032606 C2.08411058,17.7915905 4.23426163,18.4341343 6.47669379,18.4341343 C13.2792545,18.4341343 18.0654012,13.0043347 18.0654012,6.84533194 L18.0614825,6.583 L18.1452479,6.52054895 C18.7322185,6.05567606 19.2560419,5.51215241 19.6998061,4.90709441 L19.8504825,4.691 L19.9007275,4.64034997 C20.1701818,4.31334761 19.8849925,3.73914751 19.4170916,3.83379294 L19.3173099,3.86331684 L18.9640289,4.00916987 L18.9284825,4.021 L19.0516206,3.8273 C19.2167032,3.54737752 19.3511184,3.24825376 19.4507044,2.93480631 C19.5898842,2.49673765 19.1139629,2.11877624 18.718795,2.35354723 L18.4092176,2.52742714 C17.8865617,2.80448026 17.3310812,3.01747762 16.7524316,3.16158736 L16.6564825,3.182 L16.5166169,3.0562007 C15.7289375,2.38208563 14.721372,2 13.6538236,2 Z M13.6538236,3 C14.6068433,3 15.4960777,3.39268789 16.1353901,4.07270396 C16.2534217,4.19825037 16.4277826,4.25417207 16.5968169,4.22069455 L16.9449866,4.14402026 C17.1755654,4.08807401 17.4029949,4.0225074 17.6267908,3.94755907 L17.7534825,3.902 L17.703773,3.9575699 C17.4975063,4.17060482 17.2629057,4.35739293 17.0053275,4.51158738 C16.542686,4.78853912 16.7856458,5.50067245 17.3210884,5.43710599 L17.6738084,5.38760056 L17.9964825,5.328 L17.7780439,5.52639661 C17.6122532,5.67016814 17.4398696,5.8067306 17.2616194,5.93528925 C17.1239815,6.03455723 17.0460891,6.19686147 17.0547508,6.36634095 L17.0608174,6.5152199 L17.0654012,6.84533194 C17.0654012,12.4781646 12.6969162,17.4341343 6.47669379,17.4341343 L6.09352662,17.4272808 C4.94732066,17.3862241 3.83198778,17.1612755 2.78028822,16.767982 L2.51748246,16.664 L2.7484937,16.6329189 C4.15117314,16.4106995 5.46378307,15.8355128 6.58095103,14.9602641 C6.95140686,14.6700294 6.75226373,14.0753608 6.28173242,14.0667566 L6.09236845,14.0580198 C5.02594855,13.9789845 4.07755513,13.4021267 3.50742979,12.5383342 L3.43848246,12.428 L3.36718671,12.4305252 C3.759331,12.4305252 4.14891914,12.3782295 4.52342294,12.2772924 C5.03356572,12.1397977 5.00955682,11.4080173 4.49149871,11.3042567 L4.30478086,11.2613376 C3.14248525,10.9592891 2.23763273,10.0626514 1.90494644,8.93376989 L1.84748246,8.713 L1.98575139,8.75608045 C2.3197848,8.84862256 2.66552762,8.90172189 3.01712737,8.9126652 C3.51967606,8.9283067 3.72838038,8.27578091 3.31003211,7.99688206 C2.37288939,7.37212025 1.79794937,6.3197121 1.79794937,5.17014911 L1.80541183,4.94331989 C1.82029632,4.71778738 1.85732563,4.49640982 1.91540814,4.28157088 L1.96148246,4.126 L2.13246857,4.30639053 C4.15067617,6.37511306 6.88174902,7.63688898 9.83340557,7.78406946 C10.1666421,7.80068587 10.4223546,7.49246963 10.344506,7.16802808 C10.2859703,6.92407476 10.2563025,6.66562064 10.2563025,6.39752113 C10.2563025,4.52223743 11.7785143,3 13.6538236,3 Z" fill="#000000" fill-rule="nonzero"></path>
    </g>
</svg>