<?xml version="1.0" encoding="UTF-8"?>
<svg width="20px" height="20px" viewBox="0 0 20 20" version="1.1" xmlns="http://www.w3.org/2000/svg" xmlns:xlink="http://www.w3.org/1999/xlink">
    <title>vimeo</title>
    <g id="vimeo" stroke="none" stroke-width="1" fill="none" fill-rule="evenodd">
        <path d="M6.21689833,1 C6.14289954,1 6.06790077,1.0073124 5.98890206,1.02298184 C3.40094438,1.5463409 0,5.90453253 0,5.90453253 L0.810986738,7.23330045 C0.810986738,7.23330045 1.94996811,6.15210957 2.66295645,6.15210957 C2.81495397,6.15210957 2.94695181,6.20120713 3.0449502,6.32029482 C3.60394106,7.00034821 5.68890697,15.2205328 6.44589459,16.7080843 C7.03688492,17.8686669 8.03286864,19 9.27384834,19 C9.70784124,19 10.1728336,18.8610644 10.6598257,18.5361848 C12.5387949,17.2836748 18.7826928,11.8025071 19.9006746,5.32998665 C20.4156661,2.34234809 18.8536917,1.02298184 16.9327231,1.02193721 C14.6927597,1.02193721 11.9648043,2.8166096 11.4728124,5.85230109 C12.0048037,5.52324299 12.4787959,5.37908421 12.8777894,5.37803958 C14.1957679,5.37803958 14.7037595,6.94811677 13.8067742,8.66966514 C12.6407933,10.9145726 11.8168068,12.064709 11.0158199,12.064709 C10.458829,12.064709 10.029836,10.8759213 9.39084643,8.25181359 C9.16485012,7.32522779 8.36286324,1 6.21689833,1 M6.30366164,1 L6.30366164,2.04737847 C6.34537726,2.04737847 7.32768083,2.11231594 8.35070679,7.79120202 C8.41129377,8.12950527 8.45896876,8.38716037 8.49273855,8.52855647 C9.18501923,11.3983735 9.70348481,13.1412113 11.070168,13.1412113 C12.4249325,13.1412113 13.3973038,11.7523874 14.7153188,9.19049966 C15.3956807,7.87185016 15.4701729,6.49559485 14.9149578,5.50896433 C14.5305782,4.8292157 13.8869657,4.41445382 13.1261522,4.35161111 C14.0071465,2.91041834 15.5853875,2.06937342 16.9471046,2.06937342 C17.3563149,2.06937342 18.1121623,2.15630583 18.5720273,2.73655351 C18.9802445,3.25186372 19.099432,4.08871912 18.9166778,5.1549504 C17.8578956,11.3470519 11.6611393,16.7043928 10.1822212,17.6994024 C9.88623896,17.8984043 9.60217544,18 9.33996296,18 C8.56325782,18 7.83323444,17.1003019 7.40813239,16.2571622 C7.08731939,15.6214035 6.36126893,13.1317849 5.77625699,11.131292 C4.63603,7.22561765 4.27449461,6.1038753 3.90699985,5.6514078 C3.62690925,5.30786766 3.22365824,5.11829216 2.77372546,5.11829216 C2.51846558,5.11829216 2.2562531,5.18218224 2,5.28377796 C3.20677334,3.96093894 4.95982268,2.3186495 6.26591894,2.05156799 C6.27883091,2.04842585 6.29074966,2.04737847 6.30366164,2.04737847 L6.30366164,1" id="Fill-1" fill="#000000"></path>
    </g>
</svg>