<?xml version="1.0" encoding="UTF-8"?>
<svg width="20px" height="20px" viewBox="0 0 20 20" version="1.1" xmlns="http://www.w3.org/2000/svg" xmlns:xlink="http://www.w3.org/1999/xlink">
    <title>youtube</title>
    <g id="youtube" stroke="none" stroke-width="1" fill="none" fill-rule="evenodd">
        <path d="M8.089,13.147 L8.089,7.645 L12.805,10.265 L8.089,13.147 Z M14.041,9.807 L7.832,6.357 C7.678,6.272 7.488,6.274 7.336,6.364 C7.183,6.454 7.089,6.618 7.089,6.795 L7.089,14.039 C7.089,14.219 7.187,14.386 7.344,14.475 C7.421,14.517 7.505,14.539 7.589,14.539 C7.679,14.539 7.77,14.514 7.85,14.465 L14.059,10.671 C14.211,10.578 14.301,10.412 14.298,10.233 C14.294,10.056 14.196,9.894 14.041,9.807 L14.041,9.807 Z M18.292,15.523 C18.126,15.901 17.569,16.347 17.171,16.421 C17.148,16.426 14.882,16.833 9.993,16.833 C5.118,16.833 2.852,16.426 2.831,16.422 C2.431,16.347 1.874,15.902 1.711,15.529 C1.703,15.513 1,13.819 1,10.417 C1,7.014 1.703,5.32 1.708,5.309 C1.874,4.931 2.431,4.486 2.829,4.412 C2.852,4.407 5.118,4 9.993,4 L10.007,4 C14.882,4 17.148,4.407 17.168,4.411 C17.569,4.486 18.126,4.931 18.29,5.303 C18.297,5.32 19,7.014 19,10.417 C19,13.819 18.297,15.512 18.292,15.523 L18.292,15.523 Z M19.207,4.906 C18.909,4.229 18.075,3.564 17.353,3.428 C17.353,3.428 15.067,3 10.007,3 L9.993,3 C4.933,3 2.647,3.428 2.647,3.428 C1.924,3.564 1.091,4.229 0.793,4.906 C0.793,4.906 0,6.709 0,10.417 C0,14.125 0.793,15.926 0.793,15.926 C1.091,16.605 1.924,17.269 2.647,17.405 C2.647,17.405 4.933,17.833 9.993,17.833 L10.007,17.833 C15.067,17.833 17.353,17.405 17.353,17.405 C18.075,17.269 18.909,16.605 19.207,15.926 C19.207,15.926 20,14.125 20,10.417 C20,6.709 19.207,4.906 19.207,4.906 L19.207,4.906 Z" id="Fill-1" fill="#000000"></path>
    </g>
</svg>