<?xml version="1.0" encoding="UTF-8"?>
<svg width="20px" height="20px" viewBox="0 0 20 20" version="1.1" xmlns="http://www.w3.org/2000/svg" xmlns:xlink="http://www.w3.org/1999/xlink">
    <title>58C32C56-DD76-4C5A-9C5A-C40202EEFDCD</title>
    <g id="Pages" stroke="none" stroke-width="1" fill="none" fill-rule="evenodd">
        <g id="Create-/-Edit-Gallery" transform="translate(-740.000000, -440.000000)">
            <rect fill="#FFFFFF" x="0" y="0" width="1440" height="1198"></rect>
            <g id="Group" transform="translate(740.000000, 424.000000)" fill="#000000" fill-rule="nonzero">
                <g id="facebook" transform="translate(0.000000, 16.000000)">
                    <path d="M15.3500009,0 C17.9177666,0 20,2.08048831 20,4.6468722 L20,15.3531278 C20,17.9195117 17.9177666,20 15.3500009,20 L4.64965405,20 C2.0818883,20 0,17.9195117 0,15.3531278 L0,4.6468722 C0,2.08048831 2.0818883,0 4.64965405,0 L15.3500009,0 Z M15.3500009,1 L4.64965405,1 C2.69950769,1 1.10647809,2.52917109 1.00573127,4.45319558 L1.00067291,4.6468722 L1.00067291,15.3531278 C1.00067291,17.3022155 2.53079456,18.8942604 4.45587185,18.9949448 L4.64965405,19 L15.3500009,19 C17.3002332,19 18.8935055,17.4707458 18.9942679,15.5467964 L18.9993271,15.3531278 L18.9993271,4.6468722 C18.9993271,2.69787036 17.4689654,1.10574515 15.5437922,1.00505549 L15.3500009,1 Z M10,5 C12.7603571,5 15,7.23903069 15,9.99964153 C15,12.7609693 12.7603571,15 10,15 C7.23785714,15 5,12.7609693 5,9.99964153 C5,7.23903069 7.23785714,5 10,5 Z M10,6 C7.78951611,6 6,7.79193347 6,9.99961763 C6,12.207978 7.78942731,14 10,14 C12.2094003,14 14,12.2072462 14,9.99961763 C14,7.79266523 12.2093114,6 10,6 Z M15.5,3 C16.3278058,3 17,3.6713778 17,4.5 C17,5.3286222 16.3278058,6 15.5,6 C14.6718043,6 14,5.32878072 14,4.5 C14,3.67121928 14.6718043,3 15.5,3 Z M15.5,4 C15.2235649,4 15,4.22406737 15,4.5 C15,4.77593263 15.2235649,5 15.5,5 C15.7762016,5 16,4.77577573 16,4.5 C16,4.22422427 15.7762016,4 15.5,4 Z" id="Combined-Shape"></path>
                </g>
            </g>
        </g>
    </g>
</svg>