<?xml version="1.0" encoding="UTF-8"?>
<svg width="30px" height="30px" viewBox="0 0 30 30" version="1.1" xmlns="http://www.w3.org/2000/svg" xmlns:xlink="http://www.w3.org/1999/xlink">
    <title>icon-create-collections</title>
    <g id="icon-create-collections" stroke="none" stroke-width="1" fill="none" fill-rule="evenodd">
        <path d="M10.435,19.655 C12.091,19.655 13.435,20.998 13.435,22.655 L13.435,27 C13.435,28.657 12.091,30 10.435,30 L3,30 C1.343,30 0,28.657 0,27 L0,22.655 C0,20.998 1.343,19.655 3,19.655 L10.435,19.655 Z M27.0005,13.4492 C28.5973571,13.4492 29.904102,14.6979844 29.9954042,16.2729127 L30.0005,16.4492 L30.0005,27.0002 C30.0005,28.5980214 28.7507857,29.9038709 27.1766877,29.9951078 L27.0005,30.0002 L19.5655,30.0002 C17.9686429,30.0002 16.661898,28.7514156 16.5705958,27.1764873 L16.5655,27.0002 L16.5655,16.4492 C16.5655,14.8513786 17.8152143,13.5455291 19.3893123,13.4542922 L19.5655,13.4492 L27.0005,13.4492 Z M10.435,20.655 L3,20.655 C1.94549908,20.655 1.08182223,21.470745 1.00548487,22.5057195 L1,22.655 L1,27 C1,28.0545009 1.81574499,28.9181778 2.85071955,28.9945151 L3,29 L10.435,29 C11.4889252,29 12.3531254,28.1838934 12.4295116,27.1492311 L12.435,27 L12.435,22.655 C12.435,21.6008779 11.6187055,20.7368567 10.5842055,20.6604872 L10.435,20.655 Z M27.0005,14.4492 L19.5655,14.4492 C18.5115748,14.4492 17.6473746,15.2653066 17.5709884,16.2999689 L17.5655,16.4492 L17.5655,27.0002 C17.5655,28.0543221 18.3817945,28.9183433 19.4162945,28.9947128 L19.5655,29.0002 L27.0005,29.0002 C28.0544252,29.0002 28.9186254,28.1840934 28.9950116,27.1494311 L29.0005,27.0002 L29.0005,16.4492 C29.0005,15.3950779 28.1842055,14.5310567 27.1497055,14.4546872 L27.0005,14.4492 Z M23.7827,18.9788 L23.782,21.1956 L26.0009,21.1956 L26.0009,22.1956 L23.782,22.1956 L23.7827,24.4128 L22.7827,24.4128 L22.782,22.1956 L20.5659,22.1956 L20.5659,21.1956 L22.782,21.1956 L22.7827,18.9788 L23.7827,18.9788 Z M10.435,-0.0004 C12.091,-0.0004 13.435,1.3426 13.435,2.9996 L13.435,13.5506 C13.435,15.2076 12.091,16.5506 10.435,16.5506 L3,16.5506 C1.343,16.5506 0,15.2076 0,13.5506 L0,2.9996 C0,1.3426 1.343,-0.0004 3,-0.0004 L10.435,-0.0004 Z M10.435,0.9996 L3,0.9996 C1.94549908,0.9996 1.08182223,1.81534499 1.00548487,2.85031955 L1,2.9996 L1,13.5506 C1,14.6051009 1.81574499,15.4687778 2.85071955,15.5451151 L3,15.5506 L10.435,15.5506 C11.4889252,15.5506 12.3531254,14.7344934 12.4295116,13.6998311 L12.435,13.5506 L12.435,2.9996 C12.435,1.94547789 11.6187055,1.08145667 10.5842055,1.00508722 L10.435,0.9996 Z M27.0005,2.30926389e-14 C28.5973571,2.30926389e-14 29.904102,1.24878444 29.9954042,2.82371269 L30.0005,3 L30.0005,7.345 C30.0005,8.94282143 28.7507857,10.2486709 27.1766877,10.3399078 L27.0005,10.345 L19.5655,10.345 C17.9686429,10.345 16.661898,9.09621556 16.5705958,7.52128731 L16.5655,7.345 L16.5655,3 C16.5655,1.40217857 17.8152143,0.0963290816 19.3893123,0.00509215561 L19.5655,2.30926389e-14 L27.0005,2.30926389e-14 Z M27.0005,1 L19.5655,1 C18.5115748,1 17.6473746,1.81610658 17.5709884,2.85076885 L17.5655,3 L17.5655,7.345 C17.5655,8.39912211 18.3817945,9.26314333 19.4162945,9.33951278 L19.5655,9.345 L27.0005,9.345 C28.0544252,9.345 28.9186254,8.52889342 28.9950116,7.49423115 L29.0005,7.345 L29.0005,3 C29.0005,1.94587789 28.1842055,1.08185667 27.1497055,1.00548722 L27.0005,1 Z" id="Combined-Shape" fill="#000000" fill-rule="nonzero"></path>
    </g>
</svg>