<?xml version="1.0" encoding="UTF-8"?>
<svg width="30px" height="30px" viewBox="0 0 30 30" version="1.1" xmlns="http://www.w3.org/2000/svg" xmlns:xlink="http://www.w3.org/1999/xlink">
    <title>icon-least-them-for-sale</title>
    <g id="icon-least-them-for-sale" stroke="none" stroke-width="1" fill="none" fill-rule="evenodd">
        <path d="M29.5,0 C29.7761424,0 30,0.223857625 30,0.5 L30,0.5 L30,16.6113796 C30,16.887522 29.7761424,17.1113796 29.5,17.1113796 L29.5,17.1113796 L26.778,17.111 L26.7780141,23.0559315 C26.7780141,23.3013914 26.6011389,23.5055399 26.3678897,23.5478758 L26.2780141,23.5559315 L23.555,23.555 L23.5551581,29.5001933 C23.5551581,29.7456532 23.378283,29.9498017 23.1450338,29.9921377 L23.0551581,30.0001933 L0.5,30.0001933 C0.254540111,30.0001933 0.0503916296,29.8233182 0.00805566941,29.590069 L0,29.5001933 L0,13.3888137 L1,13.3888137 L0.9991,29 L22.5551,29 L22.555,23.555 L3.72188926,23.5559315 C3.47642937,23.5559315 3.27228089,23.3790563 3.22994493,23.1458071 L3.22188926,23.0559315 L3.22188926,6.94455185 L4.22188926,6.94455185 L4.2211,22.555 L25.7771,22.555 L25.778,17.111 L6.94484185,17.1113796 C6.69938196,17.1113796 6.49523348,16.9345045 6.45289752,16.7012553 L6.44484185,16.6113796 L6.44484185,0.5 C6.44484185,0.223857625 6.66869948,0 6.94484185,0 L6.94484185,0 Z M28.9991,1 L7.4441,1 L7.4441,16.111 L28.9991,16.111 L28.9991,1 Z M20.3704438,4.29623901 C22.7213598,4.29623901 24.6297979,6.20433823 24.6297979,8.55559315 C24.6297979,10.8376935 22.83197,12.7023228 20.5766919,12.8100327 L20.3704438,12.8149473 L20.3704438,11.8149473 C22.1691148,11.8149473 23.6297979,10.3545236 23.6297979,8.55559315 C23.6297979,6.81869482 22.2681147,5.39736039 20.5552615,5.30140261 L20.3704438,5.29623901 L20.3704438,4.29623901 Z M15.5371265,4.29604568 L15.5371265,5.29604568 C13.7384555,5.29604568 12.2777724,6.7564694 12.2777724,8.55539982 C12.2777724,10.2917062 13.6397853,11.7135917 15.3523429,11.8095882 L15.5371265,11.814754 L15.5371265,12.814754 C13.1865244,12.814754 11.2777724,10.9060019 11.2777724,8.55539982 C11.2777724,6.27329945 13.0756003,4.40867016 15.3308784,4.30096022 L15.5371265,4.29604568 Z M19.8335589,8.05549648 L19.8335589,9.05549648 L16.0742048,9.05549648 L16.0742048,8.05549648 L19.8335589,8.05549648 Z" id="Combined-Shape" fill="#000000" fill-rule="nonzero"></path>
    </g>
</svg>