<?xml version="1.0" encoding="UTF-8"?>
<svg width="30px" height="30px" viewBox="0 0 30 30" version="1.1" xmlns="http://www.w3.org/2000/svg" xmlns:xlink="http://www.w3.org/1999/xlink">
    <title>icon-beginners-guide</title>
    <g id="icon-beginners-guide" stroke="none" stroke-width="1" fill="none" fill-rule="evenodd">
        <path d="M11.1333333,0 L11.1333333,0.00106333333 C12.8131303,0.00106333333 14.270756,0.948047997 15.0011792,2.33735891 C15.698391,1.00673238 17.0650272,0.0818536548 18.6550304,0.00609416136 L18.8666667,0.00106333333 L18.8666667,0 L29.5,0 C29.7454599,0 29.9496084,0.176875161 29.9919443,0.410124368 L30,0.5 L30,25.4999333 C30,25.7453932 29.8231248,25.9495417 29.5898756,25.9918777 L29.5,25.9999333 L19.0007433,25.9999333 C17.1313265,25.9999333 15.6045944,27.4638628 15.5048894,29.3079235 L15.5,29.461 L15.5,30 L14.5,30 L14.5003867,29.5 L14.49971,29.5 L14.499,29.479 L14.4952073,29.3079235 C14.3989404,27.5274511 12.9723652,26.101346 11.1914744,26.005111 L10.9993533,25.9999333 L0.5,25.9999333 C0.254540111,25.9999333 0.0503916296,25.8230582 0.00805566941,25.589809 L0,25.4999333 L0,0.5 C0,0.254540111 0.176875161,0.0503916296 0.410124368,0.00805566941 L0.5,0 L11.1333333,0 Z M28.9992,0.999 L18.8666667,1 L18.8666667,1.00106333 C17.0683921,1.00106333 15.6008187,2.40796488 15.5049786,4.18110465 L15.5,4.36579667 L14.5,4.36579667 C14.5,2.5686365 13.0923691,1.10182962 11.3181394,1.00603934 L11.1333333,1.00106333 L11.1333333,1 L0.9992,0.999 L0.9992,24.999 L11.1333333,24.9999333 L11.133,25.003 L11.2176399,25.0051304 C12.543647,25.0684094 13.7191934,25.7051323 14.5016148,26.6728001 L14.5,4.36744 L15.5,4.36744 L15.4998322,26.6711309 C16.2835114,25.7028483 17.4609853,25.0663319 18.7888398,25.0048303 L18.866,25.002 L18.8666667,24.9999333 L28.9992,24.999 L28.9992,0.999 Z M26.00057,18.49997 L26.00057,19.49997 L18.5002033,19.49997 L18.5002033,18.49997 L26.00057,18.49997 Z M11.50057,18.49997 L11.50057,19.49997 L4.00020333,19.49997 L4.00020333,18.49997 L11.50057,18.49997 Z M26.00057,13.0000233 L26.00057,14.0000233 L18.5002033,14.0000233 L18.5002033,13.0000233 L26.00057,13.0000233 Z M11.50057,13.0000233 L11.50057,14.0000233 L4.00020333,14.0000233 L4.00020333,13.0000233 L11.50057,13.0000233 Z M26.00057,7.00002 L26.00057,8.00002 L18.5002033,8.00002 L18.5002033,7.00002 L26.00057,7.00002 Z M11.50057,7.00002 L11.50057,8.00002 L4.00020333,8.00002 L4.00020333,7.00002 L11.50057,7.00002 Z" id="Combined-Shape" fill="#000000" fill-rule="nonzero"></path>
    </g>
</svg>