<?xml version="1.0" encoding="UTF-8"?>
<svg width="30px" height="30px" viewBox="0 0 30 30" version="1.1" xmlns="http://www.w3.org/2000/svg" xmlns:xlink="http://www.w3.org/1999/xlink">
    <title>icon-add-nfts</title>
    <g id="icon-add-nfts" stroke="none" stroke-width="1" fill="none" fill-rule="evenodd">
        <path d="M15.2774144,0.084794564 L15.2773501,0.0848155619 L29.7773501,9.75148223 C29.9084594,9.83843228 30,9.98639731 30,10.1675074 L30,10.1675074 L30,19.834174 C30,20.0013506 29.9164494,20.1574663 29.7773501,20.2501992 L29.7773501,20.2501992 L15.2773501,29.9168659 C15.0957654,30.0379223 14.8804948,30.021687 14.7225856,29.9168869 L14.7226499,29.9168659 L0.222649902,20.2501992 C0.111370435,20.1760129 0.0356421777,20.0612616 0.00980205371,19.9327341 L0,19.834174 L0,10.1675074 C0,9.98639731 0.0915406098,9.83843228 0.222585608,9.75146123 L0.222649902,9.75148223 L14.7226499,0.0848155619 C14.9042346,-0.0362408931 15.1195052,-0.0200055538 15.2774144,0.084794564 Z M7.75,15.601 L1.401,19.834 L14.5,28.566 L14.5,20.102 L7.75,15.601 Z M22.249,15.601 L15.5,20.1008407 L15.5,28.5648407 L28.597,19.833 L22.249,15.601 Z M14.999,10.768 L8.651,15 L15,19.233 L21.348,15.001 L14.999,10.768 Z M29,11.1008407 L23.15,15 L29,18.9 L29,11.1008407 Z M1,11.1008407 L1,18.899 L6.848,15 L1,11.1008407 Z M15.5,1.435 L15.5,9.9 L22.25,14.4 L28.598,10.167 L15.5,1.435 Z M14.5,1.43484071 L1.401,10.167 L7.749,14.399 L14.5,9.89884071 L14.5,1.43484071 Z" id="Combined-Shape" fill="#000000" fill-rule="nonzero"></path>
    </g>
</svg>