<?xml version="1.0" encoding="UTF-8"?>
<svg width="30px" height="30px" viewBox="0 0 30 30" version="1.1" xmlns="http://www.w3.org/2000/svg" xmlns:xlink="http://www.w3.org/1999/xlink">
    <title>icon-set-up-wallet</title>
    <g id="icon-set-up-wallet" stroke="none" stroke-width="1" fill="none" fill-rule="evenodd">
        <path d="M10.2991327,0 C10.5130875,0 10.7033321,0.136132548 10.7723798,0.338639569 C11.3965959,2.16937646 13.0984764,3.42007807 15.0474152,3.42007807 C16.9963539,3.42007807 18.6982344,2.16937646 19.3224506,0.338639569 C19.3816343,0.165062122 19.5298606,0.0402495947 19.7057386,0.00813126947 L19.7956977,0 L26.600087,0 C28.4151065,0 29.8982084,1.42292888 29.9950652,3.21350903 L30.0000967,3.40000967 L30.0000967,26.5999903 C30.0000967,28.4779047 28.4780014,30 26.600087,30 L26.600087,30 L3.40000967,30 C1.52275385,30 0,28.4775967 0,26.5999903 L0,26.5999903 L0,3.40000967 C0,1.58562688 1.42321678,0.10193067 3.21353782,0.00503357036 L3.40000967,0 L10.2991327,0 Z M26.600087,12.0653736 L3.40000967,12.0653736 C2.07498707,12.0653736 1,13.1401132 1,14.4653832 L1,14.4653832 L1,26.5999903 C1,27.9252604 2.07498707,29 3.40000967,29 L3.40000967,29 L26.600087,29 C27.9257166,29 29.0000967,27.92562 29.0000967,26.5999903 L29.0000967,26.5999903 L29.0000967,14.4653832 C29.0000967,13.1397536 27.9257166,12.0653736 26.600087,12.0653736 L26.600087,12.0653736 Z M22.50334,20.7733492 C23.9965198,20.7733492 25.2073474,21.9841768 25.2073474,23.4773566 C25.2073474,24.9705364 23.9965198,26.1813639 22.50334,26.1813639 C21.5938823,26.1813639 20.7891692,25.7321811 20.2989893,25.0436039 C19.8098828,25.7321811 19.0051697,26.1813639 18.095712,26.1813639 C16.6025322,26.1813639 15.3917046,24.9705364 15.3917046,23.4773566 C15.3917046,21.9841768 16.6025322,20.7733492 18.095712,20.7733492 C19.0051697,20.7733492 19.8098828,21.2225321 20.3000627,21.9111093 C20.7891692,21.2225321 21.5938823,20.7733492 22.50334,20.7733492 Z M18.095712,21.7733492 C17.154817,21.7733492 16.3917046,22.5364616 16.3917046,23.4773566 C16.3917046,24.4182516 17.154817,25.1813639 18.095712,25.1813639 C19.036607,25.1813639 19.7997193,24.4182516 19.7997193,23.4773566 C19.7997193,22.5364616 19.036607,21.7733492 18.095712,21.7733492 Z M22.50334,21.7733492 C21.562445,21.7733492 20.7993327,22.5364616 20.7993327,23.4773566 C20.7993327,24.4182516 21.562445,25.1813639 22.50334,25.1813639 C23.444235,25.1813639 24.2073474,24.4182516 24.2073474,23.4773566 C24.2073474,22.5364616 23.444235,21.7733492 22.50334,21.7733492 Z M16.1602455,15.4670082 L16.1602455,16.4670082 L4.5495735,16.4670082 L4.5495735,15.4670082 L16.1602455,15.4670082 Z M20.1395,0.9993 L20.099531,1.09794282 C19.2297249,3.08928508 17.2706455,4.42007807 15.0474152,4.42007807 C12.8241848,4.42007807 10.8651054,3.08928508 9.99529933,1.09794282 L9.9545,0.9993 L3.40000967,1 C2.130541,1 1.09004507,1.9876014 1.00554101,3.23578507 L1,3.40000967 L0.999944009,12.0573725 C1.61497763,11.4443651 2.46336827,11.0653736 3.40000967,11.0653736 L3.40000967,11.0653736 L26.600087,11.0653736 C27.537057,11.0653736 28.3854483,11.4442884 29.0004001,12.0572572 L29.0000967,3.40000967 C29.0000967,2.13019634 28.0130528,1.09001635 26.7643813,1.00553922 L26.600087,1 L20.1395,0.9993 Z M16.1602455,6.67988227 L16.1602455,7.67988227 L4.5495735,7.67988227 L4.5495735,6.67988227 L16.1602455,6.67988227 Z" id="Combined-Shape" fill="#000000" fill-rule="nonzero"></path>
    </g>
</svg>