<?xml version="1.0" encoding="UTF-8"?>
<svg width="20px" height="20px" viewBox="0 0 20 20" version="1.1" xmlns="http://www.w3.org/2000/svg" xmlns:xlink="http://www.w3.org/1999/xlink">
    <title>icon-wallet</title>
    <g id="icon-wallet" stroke="none" stroke-width="1" fill="none" fill-rule="evenodd">
        <path d="M14.8548467,0 C15.9841171,0 16.8729907,1.00280648 16.945103,2.2376772 L16.9498296,2.4 L16.949,6 L18.0144767,6 C19.0927967,6 19.9248661,7.00426101 19.9951816,8.23136042 L20,8.4 L20,10.7395333 C20,12.0414692 19.1416714,13.1395333 18.0144767,13.1395333 L18.0144767,13.1395333 L16.949,13.139 L16.9498296,17.6 C16.9498296,18.8535932 16.108009,19.9086328 15.0007321,19.9943764 L14.8548467,20 L2.09498296,20 C0.965712512,20 0.0768389195,18.9971935 0.00472665907,17.7623228 L0,17.6 L0,2.4 C0,1.14640676 0.841820658,0.09136723 1.9490975,0.00562364632 L2.09498296,0 L14.8548467,0 Z M14.8548467,1 L2.09498296,1 C1.54789983,1 1.0642102,1.53545661 1.00588604,2.25396257 L1,2.4 L1,17.6 C1,18.3413463 1.44949693,18.923137 1.98651883,18.992965 L2.09498296,19 L14.8548467,19 C15.4019298,19 15.8856194,18.4645434 15.9439436,17.7460374 L15.9498296,17.6 L15.949,13.139 L15.1206772,13.1395333 C14.0424909,13.1395333 13.2102993,12.1348773 13.139973,10.9081214 L13.1351538,10.7395333 L13.135,10.499 L7.76817578,10.49981 L7.76817578,9.49981 L13.135,9.499 L13.1351538,8.4 C13.1351538,7.15425707 13.9203397,6.09583332 14.9752083,6.00615137 L15.1206772,6 L15.949,6 L15.9498296,2.4 C15.9498296,1.65865371 15.5003327,1.07686296 14.9633108,1.007035 L14.8548467,1 Z M18.0144767,7 L15.1206772,7 C14.6070037,7 14.1351538,7.60350094 14.1351538,8.4 L14.1351538,8.4 L14.1351538,10.7395333 C14.1351538,11.5356349 14.6072058,12.1395333 15.1206772,12.1395333 L15.1206772,12.1395333 L18.0144767,12.1395333 C18.5279481,12.1395333 19,11.5356349 19,10.7395333 L19,10.7395333 L19,8.4 C19,7.60350094 18.5281501,7 18.0144767,7 L18.0144767,7 Z" id="Combined-Shape" fill="#FFFFFF" fill-rule="nonzero"></path>
    </g>
</svg>