<?xml version="1.0" encoding="UTF-8"?>
<svg width="30px" height="30px" viewBox="0 0 30 30" version="1.1" xmlns="http://www.w3.org/2000/svg" xmlns:xlink="http://www.w3.org/1999/xlink">
    <title>icon-artist-active</title>
    <g id="icon-artist-active" stroke="none" stroke-width="1" fill="none" fill-rule="evenodd">
        <path d="M15,0 C23.284,0 30,6.715 30,15 C30,23.285 23.284,30 15,30 C6.716,30 0,23.285 0,15 C0,6.715 6.716,0 15,0 Z M18.646,1.498 L18.646,6.962 C18.646,7.238 18.422,7.462 18.146,7.462 L18.146,7.462 L11.854,7.462 C11.578,7.462 11.354,7.238 11.354,6.962 L11.354,6.962 L11.354,1.498 C5.399,3.108 1,8.543 1,15 C1,22.72 7.28,29 15,29 C22.72,29 29,22.72 29,15 C29,8.543 24.601,3.108 18.646,1.498 L18.646,1.498 Z M23.793,18.1201 C23.964,18.1201 24.124,18.2081 24.215,18.3531 C24.307,18.4971 24.318,18.6791 24.245,18.8341 C22.297,22.9611 18.928,25.3271 15,25.3271 C11.091,25.3271 7.721,22.9611 5.756,18.8361 C5.682,18.6811 5.692,18.4991 5.784,18.3531 C5.876,18.2081 6.035,18.1201 6.207,18.1201 L6.207,18.1201 Z M11.354,19.1201 L7.024,19.1201 C8.85,22.4411 11.721,24.3271 15,24.3271 C18.296,24.3271 21.168,22.4411 22.979,19.1201 L22.979,19.1201 L18.646,19.1201 L18.646,21.4851 C18.646,21.7611 18.422,21.9851 18.146,21.9851 L18.146,21.9851 L11.854,21.9851 C11.578,21.9851 11.354,21.7611 11.354,21.4851 L11.354,21.4851 L11.354,19.1201 Z M14.5,19.1201 L12.354,19.1201 L12.354,20.9851 L14.5,20.9851 L14.5,19.1201 Z M17.646,19.1201 L15.5,19.1201 L15.5,20.9851 L17.646,20.9851 L17.646,19.1201 Z M9.8272,10.3618 C10.6732,10.3618 11.3612,11.0498 11.3612,11.8968 C11.3612,12.7428 10.6732,13.4308 9.8272,13.4308 C8.9812,13.4308 8.2932,12.7428 8.2932,11.8968 C8.2932,11.0498 8.9812,10.3618 9.8272,10.3618 Z M20.1729,10.3618 C21.0189,10.3618 21.7069,11.0498 21.7069,11.8968 C21.7069,12.7428 21.0189,13.4308 20.1729,13.4308 C19.3259,13.4308 18.6379,12.7428 18.6379,11.8968 C18.6379,11.0498 19.3259,10.3618 20.1729,10.3618 Z M9.8272,11.3618 C9.5322,11.3618 9.2932,11.6018 9.2932,11.8968 C9.2932,12.1918 9.5322,12.4308 9.8272,12.4308 C10.1222,12.4308 10.3612,12.1918 10.3612,11.8968 C10.3612,11.6018 10.1222,11.3618 9.8272,11.3618 Z M20.1729,11.3618 C19.8779,11.3618 19.6379,11.6018 19.6379,11.8968 C19.6379,12.1918 19.8779,12.4308 20.1729,12.4308 C20.4679,12.4308 20.7069,12.1918 20.7069,11.8968 C20.7069,11.6018 20.4679,11.3618 20.1729,11.3618 Z M15,1 C14.095,1 13.212,1.094 12.354,1.258 L12.354,1.258 L12.354,6.462 L17.646,6.462 L17.646,1.259 C16.788,1.094 15.905,1 15,1 Z" id="Combined-Shape" fill="#FFFFFF"></path>
    </g>
</svg>