<?xml version="1.0" encoding="UTF-8"?>
<svg width="20px" height="20px" viewBox="0 0 20 20" version="1.1" xmlns="http://www.w3.org/2000/svg" xmlns:xlink="http://www.w3.org/1999/xlink">
    <title>icon-copy</title>
    <g id="icon-copy" stroke="none" stroke-width="1" fill="none" fill-rule="evenodd">
        <path d="M11.712359,0 C12.7422629,0 13.586712,0.797635236 13.6613522,1.80855174 L13.6667151,1.95435618 L13.666,6.333 L18.0452802,6.33328485 C19.0751842,6.33328485 19.9196332,7.13092009 19.9942734,8.1418366 L19.9996364,8.28764103 L19.9996364,18.0456438 C19.9996364,19.1245908 19.1242272,20 18.0452802,20 L18.0452802,20 L8.28800462,20 C7.20854289,20 6.33364844,19.1248033 6.33364844,18.0456438 L6.33364844,18.0456438 L6.333,13.666 L1.95435618,13.6667151 C0.924452238,13.6667151 0.0800031866,12.8690799 0.00536299168,11.8581634 L0,11.712359 L0,1.95435618 C0,0.924452238 0.797635236,0.0800031866 1.80855174,0.00536299168 L1.95435618,0 L11.712359,0 Z M18.0452802,7.33328485 L8.28800462,7.33328485 C7.76090497,7.33328485 7.33364844,7.76068897 7.33364844,8.28764103 L7.33364844,8.28764103 L7.33364844,18.0456438 C7.33364844,18.5725959 7.76090497,19 8.28800462,19 L8.28800462,19 L18.0452802,19 C18.5719425,19 18.9996364,18.5723061 18.9996364,18.0456438 L18.9996364,18.0456438 L18.9996364,8.28764103 C18.9996364,7.7609788 18.5719425,7.33328485 18.0452802,7.33328485 L18.0452802,7.33328485 Z M11.8235805,1.00642654 L11.712359,1 L1.95435618,1 C1.46531267,1 1.06160408,1.36877692 1.00642654,1.8431346 L1,1.95435618 L1,11.712359 C1,12.2014025 1.36877692,12.6051111 1.8431346,12.6602886 L1.95435618,12.6667151 L6.333,12.666 L6.33364844,8.28764103 C6.33364844,7.25753422 7.13081467,6.4132696 8.14213623,6.33864659 L8.28800462,6.33328485 L12.666,6.333 L12.6667151,1.95435618 C12.6667151,1.46531267 12.2979382,1.06160408 11.8235805,1.00642654 Z" id="Combined-Shape" fill="#000000" fill-rule="nonzero"></path>
    </g>
</svg>