<?xml version="1.0" encoding="UTF-8"?>
<svg width="20px" height="20px" viewBox="0 0 20 20" version="1.1" xmlns="http://www.w3.org/2000/svg" xmlns:xlink="http://www.w3.org/1999/xlink">
    <title>icon-choose-banner</title>
    <g id="icon-choose-banner" stroke="none" stroke-width="1" fill="none" fill-rule="evenodd">
        <path d="M18,0 C19.1045695,0 20,0.8954305 20,2 L20,18 C20,19.1045695 19.1045695,20 18,20 L2,20 C0.8954305,20 0,19.1045695 0,18 L0,2 C0,0.8954305 0.8954305,0 2,0 L18,0 Z M18,1 L2,1 C1.48716416,1 1.06449284,1.38604019 1.00672773,1.88337887 L1,2 L1,18 C1,18.5128358 1.38604019,18.9355072 1.88337887,18.9932723 L2,19 L18,19 C18.5128358,19 18.9355072,18.6139598 18.9932723,18.1166211 L19,18 L19,2 C19,1.48716416 18.6139598,1.06449284 18.1166211,1.00672773 L18,1 Z M16.9482759,13 L16.9482759,16.4482759 C16.9482759,16.6937358 16.7714007,16.8978842 16.5381515,16.9402202 L16.4482759,16.9482759 L13,16.9482759 L13,15.9482759 L15.948,15.948 L15.9482759,13 L16.9482759,13 Z M7.44827586,3.5 L7.44827586,4.5 L4.5,4.5 L4.5,7.44827586 L3.5,7.44827586 L3.5,4 C3.5,3.75454011 3.67687516,3.55039163 3.91012437,3.50805567 L4,3.5 L7.44827586,3.5 Z" id="Combined-Shape" fill="#000000" fill-rule="nonzero"></path>
    </g>
</svg>