<?xml version="1.0" encoding="UTF-8"?>
<svg width="20px" height="20px" viewBox="0 0 20 20" version="1.1" xmlns="http://www.w3.org/2000/svg" xmlns:xlink="http://www.w3.org/1999/xlink">
    <title>icon-setting</title>
    <g id="icon-setting" stroke="none" stroke-width="1" fill="none" fill-rule="evenodd">
        <path d="M11.206426,1.94334262e-06 C11.4553183,-0.000686830102 11.6668218,0.181789247 11.702616,0.428095164 L11.702616,0.428095164 L12.0260033,2.65700197 L12.3872313,2.76602982 C12.8446902,2.91664893 13.286749,3.11068285 13.7088958,3.34529232 L13.7088958,3.34529232 L13.7220033,3.35300197 L15.5107114,1.99110452 C15.684476,1.85875202 15.9203627,1.85628697 16.0952473,1.97561534 L16.0952473,1.97561534 L16.1661041,2.03418921 L17.9245868,3.78153404 C18.1017666,3.95759164 18.1218401,4.23739692 17.9716064,4.43694345 L17.9716064,4.43694345 L16.6300033,6.21700197 L16.7739249,6.47525925 C16.9741556,6.85577308 17.1418102,7.25289739 17.2749598,7.66313641 L17.2749598,7.66313641 L17.3610033,7.94900197 L19.5567686,8.23680804 C19.7740157,8.2652718 19.9435253,8.43051104 19.9830632,8.63912658 L19.9830632,8.63912658 L19.9918109,8.73091663 L20.0000032,11.206158 C20.0008189,11.4535177 19.8206409,11.6642978 19.5761665,11.7019774 L19.5761665,11.7019774 L17.3730033,12.041002 L17.2626646,12.4103724 C17.1099545,12.8707269 16.9131385,13.3149802 16.6749976,13.7385572 L16.6749976,13.7385572 L16.6660033,13.751002 L18.0086682,15.510405 C18.1412124,15.6841447 18.1437963,15.9201477 18.0244649,16.0951362 L18.0244649,16.0951362 L17.9658821,16.1660363 L16.2191924,17.924519 C16.0446381,18.1002519 15.7677313,18.1216992 15.5681989,17.9749405 L15.5681989,17.9749405 L13.7710033,16.653002 L13.7529333,16.6648738 C13.22272,16.9638427 12.6589343,17.1986851 12.0710627,17.3639583 L12.0710627,17.3639583 L12.0550033,17.367002 L11.7640663,19.5569735 C11.735269,19.7738405 11.5701767,19.9429256 11.3618584,19.9824069 L11.3618584,19.9824069 L11.2702039,19.991154 L8.79529015,20.0000019 C8.54769015,20.0008837 8.33673277,19.8204193 8.29926199,19.5756695 L8.29926199,19.5756695 L7.96200326,17.376002 L7.59636058,17.2664289 C7.13731941,17.1149538 6.69409498,16.9199641 6.27136515,16.6842569 L6.27136515,16.6842569 L6.25600326,16.675002 L4.48885315,18.0095729 C4.31520308,18.1406354 4.08037278,18.1426269 3.90612471,18.0237695 L3.90612471,18.0237695 L3.83551107,17.9654557 L2.07539038,16.2194212 C1.89990157,16.0453368 1.87795852,15.7691438 2.02375797,15.5695336 L2.02375797,15.5695336 L3.33400326,13.774002 L3.18830382,13.5061003 C2.98975748,13.1228883 2.82440487,12.7241813 2.69432489,12.3133015 L2.69432489,12.3133015 L2.61200326,12.033002 L0.447206084,11.7642739 C0.225245622,11.7366994 0.0522376458,11.5663237 0.0159001095,11.3520797 L0.0159001095,11.3520797 L0.0088512844,11.2698751 L3.21661161e-06,8.79496127 C-0.000879942613,8.54693358 0.180193687,8.33574641 0.425450301,8.29876377 L0.425450301,8.29876377 L2.62200326,7.96700197 L2.71028948,7.67402223 C2.84319931,7.26287472 3.01080825,6.86471691 3.21113233,6.48306874 L3.21113233,6.48306874 L3.35100326,6.22800197 L1.99553465,4.4938577 C1.85976925,4.32010861 1.85570886,4.08171363 1.97582129,3.90508726 L1.97582129,3.90508726 L2.0348785,3.83354055 L3.78222333,2.07538538 C3.95894789,1.89756748 4.24003635,1.87811367 4.43957182,2.02989105 L4.43957182,2.02989105 L6.21500326,3.38000197 L6.55751165,3.19758866 C6.99628831,2.97699385 7.45554743,2.79898717 7.93019918,2.66653509 L7.93019918,2.66653509 L7.94700326,2.66200197 L8.23306399,0.443018608 C8.26155242,0.221801041 8.43186346,0.0498085542 8.64559058,0.0138300023 L8.64559058,0.0138300023 L8.72758118,0.00688320806 Z M10.7750033,1.00000197 L9.16800326,1.00500197 L8.89564943,3.12722672 C8.87268443,3.30555393 8.7564032,3.45534369 8.59483208,3.52376113 L8.59483208,3.52376113 L8.51049471,3.55094421 C7.7779167,3.71734365 7.08269516,4.00695527 6.44797213,4.40640104 C6.27158001,4.51740864 6.04483194,4.50735909 5.87895195,4.38118186 L5.87895195,4.38118186 L4.18300326,3.09000197 L3.05500326,4.22500197 L4.35133395,5.88461177 C4.4632094,6.0277871 4.48727506,6.21809346 4.42003462,6.38206512 L4.42003462,6.38206512 L4.37878938,6.46151626 C3.97475972,7.09439326 3.68121324,7.79016447 3.51156809,8.52499266 C3.46541495,8.72490773 3.30181541,8.87633725 3.09893554,8.90692983 L3.09893554,8.90692983 L1.00100326,9.22300197 L1.00600326,10.825002 L3.07554182,11.0831094 C3.25523618,11.1054331 3.40628469,11.2224941 3.47476849,11.3853218 L3.47476849,11.3853218 L3.50188038,11.4703227 C3.66526048,12.2019424 3.95479864,12.897893 4.356765,13.5357086 C4.46605633,13.7091253 4.45843013,13.9316829 4.33752442,14.0972117 L4.33752442,14.0972117 L3.08400326,15.812002 L4.23200326,16.950002 L5.92073959,15.676 C6.06209226,15.569314 6.24721207,15.5465676 6.40775971,15.6108707 L6.40775971,15.6108707 L6.48566947,15.6502908 C7.11320653,16.0398712 7.79739442,16.3223904 8.51704773,16.4853478 C8.71750226,16.5307385 8.86976144,16.6941723 8.90086522,16.8973345 L8.90086522,16.8973345 L9.22200326,18.998002 L10.8290033,18.993002 L11.1078885,16.9016167 C11.1314222,16.7243892 11.2471368,16.5756432 11.4077317,16.5073419 L11.4077317,16.5073419 L11.4915501,16.4801356 C12.2178312,16.3132263 12.9063078,16.0260091 13.5350152,15.6310597 C13.7088779,15.5218405 13.9318382,15.5300127 14.0972386,15.6516669 L14.0972386,15.6516669 L15.8130033,16.913002 L16.9490033,15.770002 L15.6674073,14.0901679 C15.5591265,13.9482328 15.5359814,13.7615069 15.601196,13.5998949 L15.601196,13.5998949 L15.6411815,13.5215053 C16.0345964,12.8933404 16.3193481,12.2083103 16.4831179,11.4869433 C16.5285575,11.2867923 16.6916978,11.1347389 16.8945469,11.1034748 L16.8945469,11.1034748 L18.9980033,10.778002 L18.9930033,9.17100197 L16.8965828,8.8968166 C16.7194187,8.87360452 16.5705325,8.75826732 16.5018994,8.59791986 L16.5018994,8.59791986 L16.4745112,8.5142134 C16.3040812,7.780702 16.0105878,7.08689955 15.6071015,6.4564137 C15.4944992,6.28046192 15.503151,6.05305158 15.6287966,5.88616394 L15.6287966,5.88616394 L16.9100033,4.18300197 L15.7700033,3.05000197 L14.0616917,4.35183046 C13.9204795,4.45938852 13.7349603,4.48278796 13.5739166,4.41868672 L13.5739166,4.41868672 L13.4957528,4.3793289 C12.8683415,3.99134496 12.1862265,3.71019418 11.4698461,3.5484695 C11.267891,3.50287763 11.1149239,3.33753536 11.0851491,3.13265016 L11.0851491,3.13265016 L10.7750033,1.00000197 Z M9.95961188,5.88502266 C12.2255706,5.88502266 14.0627326,7.72230004 14.0627326,9.98847094 C14.0627326,12.2548633 12.2256767,14.0919192 9.95961188,14.0919192 C7.69300728,14.0919192 5.85583602,12.2549787 5.85583602,9.98847094 C5.85583602,7.72218468 7.6931134,5.88502266 9.95961188,5.88502266 Z M9.95961188,6.88502266 C8.24538409,6.88502266 6.85583602,8.27448348 6.85583602,9.98847094 C6.85583602,11.7026658 8.24526391,13.0919192 9.95961188,13.0919192 C11.6733919,13.0919192 13.0627326,11.7025786 13.0627326,9.98847094 C13.0627326,8.27457074 11.6732718,6.88502266 9.95961188,6.88502266 Z" id="Combined-Shape" fill="#000000" fill-rule="nonzero"></path>
    </g>
</svg>