<?xml version="1.0" encoding="UTF-8"?>
<svg width="20px" height="20px" viewBox="0 0 20 20" version="1.1" xmlns="http://www.w3.org/2000/svg" xmlns:xlink="http://www.w3.org/1999/xlink">
    <title>icon-like-art</title>
    <g id="icon-like-art" stroke="none" stroke-width="1" fill="none" fill-rule="evenodd">
        <path d="M13.6047091,2.00657837 C12.2955429,2.06782895 11.0631714,2.55473484 10.0625979,3.38053069 L10,3.434 L9.93740294,3.38053103 C8.86536102,2.49574984 7.52722201,2 6.11363636,2 C2.73375209,2 0,4.81709624 0,8.28477981 C0,13.0912571 3.76041872,16.4554608 8.78040648,18.5834234 C9.56647894,18.9166374 10.4335196,18.9166364 11.2195933,18.5834218 C16.2395796,16.4554567 20,13.0912505 20,8.28477981 C20,4.8170961 17.2662482,2 13.8863636,2 L13.6047091,2.00657837 Z M13.8863636,3 C16.7071312,3 19,5.36277184 19,8.28477981 C19,12.557595 15.5127283,15.6774326 10.8293122,17.662726 C10.2926827,17.8902019 9.70731498,17.8902026 9.1706873,17.6627275 C4.48726967,15.6774363 1,12.5576014 1,8.28477981 C1,5.36277199 3.29286908,3 6.11363636,3 C7.44861935,3 8.70234412,3.53039375 9.64842405,4.46597855 L10,4.81365409 L10.3515757,4.46597884 C11.2976579,3.53039331 12.5513812,3 13.8863636,3 Z" id="Shape" fill="#000000" fill-rule="nonzero"></path>
    </g>
</svg>