<?xml version="1.0" encoding="UTF-8"?>
<svg width="30px" height="30px" viewBox="0 0 30 30" version="1.1" xmlns="http://www.w3.org/2000/svg" xmlns:xlink="http://www.w3.org/1999/xlink">
    <title>icon-collector</title>
    <g id="icon-collector" stroke="none" stroke-width="1" fill="none" fill-rule="evenodd">
        <path d="M15,0 C23.285,0 30,6.715 30,15 C30,23.285 23.285,30 15,30 C6.717,30 0,23.285 0,15 C0,6.715 6.717,0 15,0 Z M8.944,6.042 C7.214,9.956 4.034,11.328 1.318,12.051 C1.114,13.002 1,13.988 1,15 C1,22.72 7.28,29 15,29 C22.72,29 29,22.72 29,15 C29,13.402 28.718,11.872 28.223,10.44 C24.187,8.051 21.658,8.397 18.985,8.768 C17.937,8.913 16.837,9.063 15.668,9.045 C11.62,8.983 9.749,7.229 8.944,6.042 Z M7.0267,18.1685 C7.2737,18.0505 7.5727,18.1555 7.6927,18.4055 C9.1287,21.4195 11.9287,23.2935 14.9997,23.2935 C18.0837,23.2935 20.8837,21.4205 22.3067,18.4075 C22.4237,18.1565 22.7237,18.0515 22.9727,18.1685 C23.2217,18.2865 23.3287,18.5845 23.2107,18.8345 C21.6207,22.2015 18.4747,24.2935 14.9997,24.2935 C11.5387,24.2935 8.3937,22.2025 6.7897,18.8355 C6.6707,18.5865 6.7777,18.2885 7.0267,18.1685 Z M9.8271,10.3618 C10.6741,10.3618 11.3621,11.0498 11.3621,11.8968 C11.3621,12.7428 10.6741,13.4308 9.8271,13.4308 C8.9811,13.4308 8.2931,12.7428 8.2931,11.8968 C8.2931,11.0498 8.9811,10.3618 9.8271,10.3618 Z M20.1729,10.3618 C21.0189,10.3618 21.7069,11.0498 21.7069,11.8968 C21.7069,12.7428 21.0189,13.4308 20.1729,13.4308 C19.3259,13.4308 18.6379,12.7428 18.6379,11.8968 C18.6379,11.0498 19.3259,10.3618 20.1729,10.3618 Z M9.8271,11.3618 C9.5321,11.3618 9.2931,11.6018 9.2931,11.8968 C9.2931,12.1918 9.5321,12.4308 9.8271,12.4308 C10.1221,12.4308 10.3621,12.1918 10.3621,11.8968 C10.3621,11.6018 10.1221,11.3618 9.8271,11.3618 Z M20.1729,11.3618 C19.8779,11.3618 19.6379,11.6018 19.6379,11.8968 C19.6379,12.1918 19.8779,12.4308 20.1729,12.4308 C20.4679,12.4308 20.7069,12.1918 20.7069,11.8968 C20.7069,11.6018 20.4679,11.3618 20.1729,11.3618 Z M15,1 C8.695,1 3.355,5.19 1.607,10.931 C4.297,10.136 7.059,8.66 8.404,4.671 C8.474,4.464 8.647,4.333 8.887,4.331 C9.104,4.334 9.294,4.479 9.356,4.687 C9.397,4.818 10.443,7.965 15.684,8.045 C16.789,8.065 17.837,7.917 18.849,7.777 C21.331,7.432 23.896,7.085 27.614,8.968 C25.355,4.264 20.558,1 15,1 Z" id="Combined-Shape" fill="#000000"></path>
    </g>
</svg>