<?xml version="1.0" encoding="UTF-8"?>
<svg width="20px" height="20px" viewBox="0 0 20 20" version="1.1" xmlns="http://www.w3.org/2000/svg" xmlns:xlink="http://www.w3.org/1999/xlink">
    <title>icon-increase</title>
    <g id="icon-increase" stroke="none" stroke-width="1" fill="none" fill-rule="evenodd">
        <path d="M13.3017863,12.5947451 L18.998,18.291 L18.9999345,15.569536 L19.9999345,15.569536 L19.9999345,19.4999017 C19.9999345,19.7453616 19.8230593,19.9495101 19.5898101,19.9918461 L19.4999345,19.9999017 L15.5689136,19.9999017 L15.5689136,18.9999017 L18.292,18.999 L12.5946795,13.3018518 L13.3017863,12.5947451 Z M6.698821,12.5947274 L7.40589243,13.3018695 L1.707,18.999 L4.43102093,18.9999017 L4.43102093,19.9999017 L0.5,19.9999017 C0.254540111,19.9999017 0.0503916296,19.8230266 0.00805566941,19.5897774 L0,19.4999017 L0,15.569536 L1,15.569536 L1,18.292 L6.698821,12.5947274 Z M4.43102093,0 L4.43102093,1 L1.707,1 L7.40589243,6.698196 L6.698821,7.40533813 L1,1.707 L1,4.43036576 L0,4.43036576 L0,0.5 C0,0.254540111 0.176875161,0.0503916296 0.410124368,0.00805566941 L0.5,0 L4.43102093,0 Z M19.4999345,0 C19.7453944,0 19.9495429,0.176875161 19.9918788,0.410124368 L19.9999345,0.5 L19.9999345,4.43036576 L18.9999345,4.43036576 L18.998,1.708 L13.3017863,7.40532045 L12.5946795,6.69821367 L18.292,1 L15.5689136,1 L15.5689136,0 L19.4999345,0 Z" id="Combined-Shape" fill="#000000" fill-rule="nonzero"></path>
    </g>
</svg>