<?xml version="1.0" encoding="UTF-8"?>
<svg width="100px" height="100px" viewBox="0 0 100 100" version="1.1" xmlns="http://www.w3.org/2000/svg" xmlns:xlink="http://www.w3.org/1999/xlink">
    <title>icon-create-plus</title>
    <g id="icon-create-plus" stroke="none" stroke-width="1" fill="none" fill-rule="evenodd">
        <path d="M50.5,0 L50.5008081,24.5048202 C64.1862754,24.7684683 75.2320769,35.8145971 75.4951991,49.5001932 L100,49.5 L100,50.5 L75.4951798,50.5008081 C75.2315381,64.1859417 64.1859417,75.2315381 50.5008081,75.4951798 L50.5,100 L49.5,100 L49.5001932,75.4951991 C35.8145971,75.2320769 24.7684683,64.1862754 24.5048202,50.5008081 L0,50.5 L0,49.5 L24.5048009,49.5001932 C24.7679296,35.8142634 35.8142634,24.7679296 49.5001932,24.5048009 L49.5,0 L50.5,0 Z M25.5050094,50.500414 C25.7681701,63.633887 36.3669864,74.2323759 49.5005885,74.4950107 L49.5,50.5 Z M74.4949906,50.500414 L50.5,50.5 L50.500414,74.4949906 C63.6335529,74.2318366 74.2318366,63.6335529 74.4949906,50.500414 Z M74.4950107,49.5005885 C74.2323759,36.3669864 63.633887,25.7681701 50.500414,25.5050094 L50.5,49.5 Z M49.5005885,25.5049893 C36.3666523,25.7676308 25.7676308,36.3666523 25.5049893,49.5005885 L49.5,49.5 Z" id="Combined-Shape" fill="#000000" fill-rule="nonzero"></path>
    </g>
</svg>