<?xml version="1.0" encoding="UTF-8"?>
<svg width="20px" height="20px" viewBox="0 0 20 20" version="1.1" xmlns="http://www.w3.org/2000/svg" xmlns:xlink="http://www.w3.org/1999/xlink">
    <title>icon-loop</title>
    <g id="icon-loop" stroke="none" stroke-width="1" fill="none" fill-rule="evenodd">
        <path d="M8.00110482,0 C12.4181743,0 16.0011048,3.58182571 16.0011048,8 C16.0011048,10.0218845 15.2507522,11.8686174 14.0134873,13.2770758 L20,19.2620145 L19.2620145,20 L13.2767273,14.0136434 C11.8682935,15.2502363 10.022002,16 8.00110482,16 C3.58293053,16 0,12.4181743 0,8 C0,3.58182571 3.58293053,0 8.00110482,0 Z M8.00110482,1 C4.13496185,1 1,4.13436386 1,8 C1,11.8656361 4.13496185,15 8.00110482,15 C11.8662925,15 15.0011048,11.8654866 15.0011048,8 C15.0011048,4.13451335 11.8662925,1 8.00110482,1 Z" id="Combined-Shape" fill="#000000" fill-rule="nonzero"></path>
    </g>
</svg>