<?xml version="1.0" encoding="UTF-8"?>
<svg width="30px" height="30px" viewBox="0 0 30 30" version="1.1" xmlns="http://www.w3.org/2000/svg" xmlns:xlink="http://www.w3.org/1999/xlink">
    <title>icon-loader</title>
    <g id="icon-loader" stroke="none" stroke-width="1" fill="none" fill-rule="evenodd">
        <path d="M0.547058594,15.8814895 C0.706955793,15.6954706 0.985153458,15.6500199 1.19860052,15.788933 L1.19860052,15.788933 L6.76860052,19.413933 L6.22313625,20.252067 L1.09486839,16.914 L1.0749806,16.9484051 C1.24280307,17.0120067 1.37068633,17.1640959 1.39434044,17.3545855 C2.23097933,24.0921461 7.72054249,28.9992 14.7451513,28.9992 C21.026475,28.9992 26.487387,25.0663811 28.2123107,19.4669983 C28.2936079,19.2030942 28.5734489,19.0550621 28.837353,19.1363594 C29.1012571,19.2176566 29.2492892,19.4974976 29.1679919,19.7614017 C27.3124224,25.7848822 21.4606352,29.9992 14.7451513,29.9992 C7.39107655,29.9992 1.5803515,24.9601358 0.473876337,17.9865934 L-2.13426323,22.5002498 L-3,21.9997502 L0.493,15.9577502 Z M14.8423131,5.86197757e-14 C22.1970085,5.86197757e-14 28.0082963,5.03855618 29.1144229,12.0111306 L31.7227275,7.4989502 L32.5884643,7.9994498 L29.0954643,14.0414498 L29.0414057,14.1177105 C28.8815085,14.3037294 28.6033108,14.3491801 28.3898638,14.210267 L28.3898638,14.210267 L22.8198638,10.585267 L23.365328,9.74713296 L28.4935959,13.085 L28.5136707,13.0508658 C28.3457322,12.9872972 28.2177536,12.8351321 28.194115,12.6445428 C27.358501,5.9072811 21.8681178,1 14.8423131,1 C8.56248939,1 3.10093484,4.93328162 1.37615368,10.5322017 C1.29485643,10.7961058 1.01501546,10.9441379 0.751111369,10.8628406 C0.487207279,10.7815434 0.339175187,10.5017024 0.420472436,10.2377983 C2.27589944,4.21478058 8.12832912,5.86197757e-14 14.8423131,5.86197757e-14 Z" id="Combined-Shape" fill="#000000" fill-rule="nonzero" transform="translate(14.794232, 14.999600) rotate(-30.000000) translate(-14.794232, -14.999600) "></path>
    </g>
</svg>