<?xml version="1.0" encoding="UTF-8"?>
<svg width="20px" height="20px" viewBox="0 0 20 20" version="1.1" xmlns="http://www.w3.org/2000/svg" xmlns:xlink="http://www.w3.org/1999/xlink">
    <title>icon-share</title>
    <g id="icon-share" stroke="none" stroke-width="1" fill="none" fill-rule="evenodd">
        <path d="M15.5689655,0 C18.0161284,0 20,1.98375742 20,4.43103448 C20,6.87809065 18.0160217,8.86206897 15.5689655,8.86206897 C14.1336599,8.86206897 12.8576687,8.17951375 12.0478955,7.12130701 L7.28785504,9.92082755 C7.4581431,10.3508874 7.55172414,10.8196845 7.55172414,11.3103448 C7.55172414,11.7889094 7.46265107,12.2467135 7.30017919,12.6680741 L12.8725893,15.3071696 C13.4138191,14.3808695 14.4187129,13.7586207 15.5689655,13.7586207 C17.2924872,13.7586207 18.6896552,15.155668 18.6896552,16.8793103 C18.6896552,18.6027286 17.2923838,20 15.5689655,20 C13.8455473,20 12.4482759,18.6027286 12.4482759,16.8793103 C12.4482759,16.661613 12.4705633,16.4491255 12.5129808,16.2440044 L6.81836105,13.5466755 C6.13091094,14.4803054 5.02407031,15.0862069 3.77586207,15.0862069 C1.69111625,15.0862069 0,13.3950907 0,11.3103448 C0,9.22515462 1.69090543,7.53448276 3.77586207,7.53448276 C5.01270173,7.53448276 6.11061695,8.12912099 6.79932641,9.04811616 L11.5331017,6.26272742 C11.2792972,5.70444431 11.137931,5.08423744 11.137931,4.43103448 C11.137931,1.98375742 13.1218026,0 15.5689655,0 Z M15.5689655,14.7586207 C14.3977092,14.7586207 13.4482759,15.7079721 13.4482759,16.8793103 C13.4482759,18.0504438 14.397832,19 15.5689655,19 C16.740099,19 17.6896552,18.0504438 17.6896552,16.8793103 C17.6896552,15.7079721 16.7402218,14.7586207 15.5689655,14.7586207 Z M3.77586207,8.53448276 C2.24315925,8.53448276 1,9.77747029 1,11.3103448 C1,12.8428059 2.243401,14.0862069 3.77586207,14.0862069 C5.3087366,14.0862069 6.55172414,12.8430476 6.55172414,11.3103448 C6.55172414,9.77722858 5.30897831,8.53448276 3.77586207,8.53448276 Z M15.5689655,1 C13.6740745,1 12.137931,2.53605506 12.137931,4.43103448 C12.137931,6.3258059 13.6741941,7.86206897 15.5689655,7.86206897 C17.4637369,7.86206897 19,6.3258059 19,4.43103448 C19,2.53605506 17.4638565,1 15.5689655,1 Z" id="Combined-Shape" fill="#000000" fill-rule="nonzero"></path>
    </g>
</svg>