<?xml version="1.0" encoding="UTF-8"?>
<svg width="40px" height="40px" viewBox="0 0 40 40" version="1.1" xmlns="http://www.w3.org/2000/svg" xmlns:xlink="http://www.w3.org/1999/xlink">
    <title>icon-choose-avatar</title>
    <g id="icon-choose-avatar" stroke="none" stroke-width="1" fill="none" fill-rule="evenodd">
        <path d="M19.9995191,0 C26.0747129,0 31,4.92538365 31,11 C31,15.7712245 27.9615398,19.8334756 23.7139565,21.3570429 C32.6662267,23.0834032 39.8255008,30.8627616 39.996858,39.6768049 L40,40 L38.9812397,40 C38.9812397,30.4222802 30.1627953,22.0054704 19.9994846,22.0054704 C9.95062856,22.0054704 1.21490297,30.2367601 1.02201633,39.6811986 L1.01876031,40 L0,40 C0,31.0540005 7.2249051,23.1045863 16.2856064,21.3562667 C12.0379711,19.8335326 9,15.7713573 9,11 C9,4.92521461 13.9244944,0 19.9995191,0 Z M19.9995191,1.01835951 C14.4869867,1.01835951 10.018404,5.48759574 10.018404,11 C10.018404,16.5124043 14.4869867,20.9816405 19.9995191,20.9816405 C25.5122495,20.9816405 29.981596,16.5122064 29.981596,11 C29.981596,5.48779365 25.5122495,1.01835951 19.9995191,1.01835951 Z" id="Combined-Shape" fill="#000000" fill-rule="nonzero"></path>
    </g>
</svg>