<?xml version="1.0" encoding="UTF-8"?>
<svg width="40px" height="40px" viewBox="0 0 40 40" version="1.1" xmlns="http://www.w3.org/2000/svg" xmlns:xlink="http://www.w3.org/1999/xlink">
    <title>icon-choose-banner-2</title>
    <g id="icon-choose-banner-2" stroke="none" stroke-width="1" fill="none" fill-rule="evenodd">
        <path d="M35,0 C37.7614237,0 40,2.23857625 40,5 L40,35 C40,37.7614237 37.7614237,40 35,40 L5,40 C2.23857625,40 0,37.7614237 0,35 L0,5 C0,2.23857625 2.23857625,0 5,0 L35,0 Z M35,1 L5,1 C2.85780461,1 1.10892112,2.68396847 1.00489531,4.80035966 L1,5 L1,35 C1,37.1421954 2.68396847,38.8910789 4.80035966,38.9951047 L5,39 L35,39 C37.1421954,39 38.8910789,37.3160315 38.9951047,35.1996403 L39,35 L39,5 C39,2.85780461 37.3160315,1.10892112 35.1996403,1.00489531 L35,1 Z M35.3965517,28 L35.3965517,34.8965517 C35.3965517,35.1420116 35.2196766,35.3461601 34.9864274,35.3884961 L34.8965517,35.3965517 L28,35.3965517 L28,34.3965517 L34.396,34.396 L34.3965517,28 L35.3965517,28 Z M11.8965517,4.5 L11.8965517,5.5 L5.499,5.5 L5.5,11.8965517 L4.5,11.8965517 L4.5,5 C4.5,4.75454011 4.67687516,4.55039163 4.91012437,4.50805567 L5,4.5 L11.8965517,4.5 Z" id="Combined-Shape" fill="#000000" fill-rule="nonzero"></path>
    </g>
</svg>