<?xml version="1.0" encoding="UTF-8"?>
<svg width="50px" height="50px" viewBox="0 0 50 50" version="1.1" xmlns="http://www.w3.org/2000/svg" xmlns:xlink="http://www.w3.org/1999/xlink">
    <title>left-arrow</title>
    <g id="left-arrow" stroke="none" stroke-width="1" fill="none" fill-rule="evenodd">
        <path d="M25,0 C38.8071187,0 50,11.1928813 50,25 C50,38.8071187 38.8071187,50 25,50 C11.1928813,50 0,38.8071187 0,25 C0,11.1928813 11.1928813,0 25,0 Z M25,1 C11.745166,1 1,11.745166 1,25 C1,38.254834 11.745166,49 25,49 C38.254834,49 49,38.254834 49,25 C49,11.745166 38.254834,1 25,1 Z M25.5,13 L25.4964494,13.3068604 C25.3743033,18.5800285 22.1122207,23.0768664 17.5074077,25.0005568 L38,25 L38,26 L17.5105076,26.0007387 C22.2027454,27.9623848 25.5,32.596092 25.5,38 L25.5,38 L24.5,38 L24.4962,37.6950212 C24.3343865,31.208458 19.0252521,26 12.5,26 L12.5,26 L12.5,25 L12.8049655,24.9962002 C19.2912542,24.8343955 24.5,19.5255444 24.5,13 L24.5,13 L25.5,13 Z" id="Combined-Shape" fill="#000000" fill-rule="nonzero"></path>
    </g>
</svg>