<?xml version="1.0" encoding="UTF-8"?>
<svg width="50px" height="50px" viewBox="0 0 50 50" version="1.1" xmlns="http://www.w3.org/2000/svg" xmlns:xlink="http://www.w3.org/1999/xlink">
    <title>right-arrow</title>
    <g id="right-arrow" stroke="none" stroke-width="1" fill="none" fill-rule="evenodd">
        <path d="M25,0 C38.8071187,0 50,11.1928813 50,25 C50,38.8071187 38.8071187,50 25,50 C11.1928813,50 0,38.8071187 0,25 C0,11.1928813 11.1928813,0 25,0 Z M25,1 C11.745166,1 1,11.745166 1,25 C1,38.254834 11.745166,49 25,49 C38.254834,49 49,38.254834 49,25 C49,11.745166 38.254834,1 25,1 Z M26,13 C26,19.5255444 31.2087458,24.8343955 37.6950345,24.9962002 L38,25 L38,26 C31.4747479,26 26.1656135,31.208458 26.0038,37.6950212 L26,38 L25,38 C25,32.596092 28.2972546,27.9623848 32.9894924,26.0007387 L13,26 L13,25 L32.9925923,25.0005568 C28.3877793,23.0768664 25.1256967,18.5800285 25.0035506,13.3068604 L25,13 L26,13 Z" id="Combined-Shape" fill="#111111" fill-rule="nonzero"></path>
    </g>
</svg>