<?xml version="1.0" encoding="UTF-8"?>
<svg width="30px" height="30px" viewBox="0 0 30 30" version="1.1" xmlns="http://www.w3.org/2000/svg" xmlns:xlink="http://www.w3.org/1999/xlink">
    <!-- Generator: Sketch 52 (66869) - http://www.bohemiancoding.com/sketch -->
    <title>be-active</title>
    <desc>Created with Sketch.</desc>
    <g id="be-active" stroke="none" stroke-width="1" fill="none" fill-rule="evenodd">
        <path d="M17.4476158,15.4234069 L20.9024779,15.4234069 C20.8007478,14.5527552 20.0549468,13.9007573 19.1783498,13.917272 C18.2984499,13.8915091 17.5473642,14.5481311 17.4548823,15.4234069 L17.4476158,15.4234069 Z M20.8899268,10 C20.7683791,10.9994658 19.860074,11.711577 18.8606082,11.5906899 C18.0269493,11.4896203 17.3703273,10.8329983 17.2692578,10 L20.8899268,10 Z M17.4284589,16.784213 C17.4707363,17.7156385 18.2462637,18.4442643 19.1783498,18.4290709 C19.8144936,18.457476 20.40836,18.1106686 20.698357,17.5438863 L22.5539417,17.5438863 C22.3636931,18.2236288 21.9554512,18.8227798 21.3919718,19.2481969 C20.7419557,19.6960738 19.9670889,19.9266182 19.1783498,19.9087824 C17.2316044,19.9741803 15.5999582,18.4488884 15.5345603,16.502143 C15.5305967,16.3911646 15.5325785,16.2801863 15.5385238,16.1698685 C15.4209396,14.2251048 16.9019722,12.5531629 18.8460753,12.4355787 C18.9570537,12.4283123 19.068032,12.4269911 19.1783498,12.4309546 C21.4375522,12.4309546 22.5869709,14.0758125 22.6200002,16.1038099 L22.6200002,16.7643954 L17.4284589,16.784213 Z M11.595489,17.8543615 C12.2666438,17.9243835 12.867116,17.4368714 12.9371381,16.7657166 C13.0078208,16.0945617 12.5203087,15.4927683 11.8484932,15.4234069 C11.7645989,15.4141587 11.6793833,15.4141587 11.595489,15.4234069 L9.18369135,15.4234069 L9.18369135,17.8543615 L11.595489,17.8543615 Z M9.2041695,13.6001909 L11.1059951,13.6001909 C12.0043914,13.6001909 12.3016549,13.1906279 12.3016549,12.7017947 C12.3016549,12.2129614 12.0043914,11.8166101 11.1059951,11.8166101 L9.18369135,11.8166101 L9.2041695,13.6001909 Z M15.1494389,16.6587017 C15.1494389,18.3431947 13.9399069,19.6769168 11.8861466,19.6769168 L7.05000022,19.6769168 L7.05000022,10 L11.2387728,10 C13.2925331,10 14.5020651,10.9908782 14.5020651,12.4441663 C14.5199009,13.2751829 14.0310677,14.033535 13.2661097,14.3598642 C14.3322947,14.6267408 15.0972527,15.5608087 15.1494389,16.6587017 Z" id="Fill-1" fill="#FF4F26"></path>
    </g>
</svg>