<svg width="20" height="20" viewBox="0 0 20 20" fill="none" xmlns="http://www.w3.org/2000/svg">
<path fill-rule="evenodd" clip-rule="evenodd" d="M10.0013 16.6665C13.6832 16.6665 16.668 13.6818 16.668 9.99984C16.668 6.31794 13.6832 3.33317 10.0013 3.33317C6.3194 3.33317 3.33464 6.31794 3.33464 9.99984C3.33464 13.6818 6.3194 16.6665 10.0013 16.6665ZM10.0013 18.3332C14.6036 18.3332 18.3346 14.6022 18.3346 9.99984C18.3346 5.39746 14.6036 1.6665 10.0013 1.6665C5.39893 1.6665 1.66797 5.39746 1.66797 9.99984C1.66797 14.6022 5.39893 18.3332 10.0013 18.3332Z" fill="#777E91"/>
<path d="M10.0013 8.3335C10.0013 7.87326 10.3744 7.50016 10.8346 7.50016H11.668C12.1282 7.50016 12.5013 7.12707 12.5013 6.66683C12.5013 6.2066 12.1282 5.8335 11.668 5.8335H10.8346C9.45389 5.8335 8.33464 6.95279 8.33464 8.3335V10.0002H7.5013C7.04107 10.0002 6.66797 10.3732 6.66797 10.8335C6.66797 11.2937 7.04106 11.6668 7.5013 11.6668H8.33464V16.6668C8.33464 17.1271 8.70772 17.5002 9.16797 17.5002C9.62822 17.5002 10.0013 17.1271 10.0013 16.6668V11.6668H11.668C12.1282 11.6668 12.5013 11.2937 12.5013 10.8335C12.5013 10.3732 12.1282 10.0002 11.668 10.0002H10.0013V8.3335Z" fill="#777E91"/>
</svg>
