<?xml version="1.0" encoding="UTF-8"?>
<svg width="30px" height="30px" viewBox="0 0 30 30" version="1.1" xmlns="http://www.w3.org/2000/svg" xmlns:xlink="http://www.w3.org/1999/xlink">
    <!-- Generator: Sketch 52 (66869) - http://www.bohemiancoding.com/sketch -->
    <title>ig-active</title>
    <desc>Created with Sketch.</desc>
    <g id="ig-active" stroke="none" stroke-width="1" fill="none" fill-rule="evenodd">
        <path d="M18.4122207,12.2483477 C18.0148306,12.2483477 17.693324,11.9268412 17.693324,11.5294511 C17.693324,11.1327267 18.0148306,10.8105545 18.4122207,10.8105545 C18.8096108,10.8105545 19.1311173,11.1327267 19.1311173,11.5294511 C19.1311173,11.9268412 18.8096108,12.2483477 18.4122207,12.2483477 M14.9708359,18.0461159 C13.2721098,18.0461159 11.8955559,16.669562 11.8955559,14.9708359 C11.8955559,13.2727754 13.2721098,11.8955559 14.9708359,11.8955559 C16.669562,11.8955559 18.0461159,13.2727754 18.0461159,14.9708359 C18.0461159,16.669562 16.669562,18.0461159 14.9708359,18.0461159 M20.9283589,12.5012928 C20.9123834,12.0020591 20.8112053,11.5088161 20.6288186,11.0435302 C20.3172967,10.2514126 19.6909248,9.62437503 18.8981415,9.31285316 C18.4335213,9.13845417 17.9429409,9.04393257 17.4470354,9.03328225 C16.7813904,9.03328225 16.6016662,9 14.9774923,9 C13.3533185,9 13.1469685,9 12.5079493,9.03328225 C12.0073842,9.04260128 11.5121443,9.13712288 11.0435302,9.31285316 C10.2514126,9.62437503 9.62437503,10.2514126 9.31285316,11.0435302 C9.13845417,11.5081505 9.04393257,11.9987308 9.03328225,12.4946364 C9.03328225,13.1602814 9,13.3400056 9,14.9641794 C9,16.5883533 9,16.7953689 9.03328225,17.4343881 C9.04260128,17.9342875 9.13712288,18.4295274 9.31285316,18.8981415 C9.62437503,19.6902591 10.2514126,20.3179624 11.0435302,20.6288186 C11.5081505,20.8032176 11.9987308,20.8977392 12.4946364,20.9083895 C13.1602814,20.9083895 13.3400056,20.9416718 14.9641794,20.9416718 C16.5883533,20.9416718 16.7947033,20.9416718 17.4337225,20.9083895 C17.9342875,20.8997361 18.4295274,20.8045489 18.8981415,20.6288186 C19.6909248,20.3179624 20.3172967,19.6902591 20.6288186,18.8981415 C20.8032176,18.4335213 20.8977392,17.9429409 20.9083895,17.4470354 C20.9083895,16.7813904 20.9416718,16.6023318 20.9416718,14.9774923 C20.9416718,13.3533185 20.9549847,13.1403121 20.9283589,12.5012928" id="Fill-1" fill="#FF4F26"></path>
    </g>
</svg>