<svg width="20" height="20" viewBox="0 0 20 20" fill="none" xmlns="http://www.w3.org/2000/svg">
<path fill-rule="evenodd" clip-rule="evenodd" d="M13.3346 3.33317H6.66797C4.82702 3.33317 3.33464 4.82555 3.33464 6.6665V13.3332C3.33464 15.1741 4.82702 16.6665 6.66797 16.6665H13.3346C15.1756 16.6665 16.668 15.1741 16.668 13.3332V6.6665C16.668 4.82555 15.1756 3.33317 13.3346 3.33317ZM6.66797 1.6665C3.90654 1.6665 1.66797 3.90508 1.66797 6.6665V13.3332C1.66797 16.0946 3.90654 18.3332 6.66797 18.3332H13.3346C16.0961 18.3332 18.3346 16.0946 18.3346 13.3332V6.6665C18.3346 3.90508 16.0961 1.6665 13.3346 1.6665H6.66797Z" fill="#777E91"/>
<path d="M14.1654 6.66667C14.6256 6.66667 14.9987 6.29357 14.9987 5.83333C14.9987 5.3731 14.6256 5 14.1654 5C13.7051 5 13.332 5.3731 13.332 5.83333C13.332 6.29357 13.7051 6.66667 14.1654 6.66667Z" fill="#777E91"/>
<path fill-rule="evenodd" clip-rule="evenodd" d="M14.1654 10.0002C14.1654 12.3013 12.2999 14.1668 9.9987 14.1668C7.69751 14.1668 5.83203 12.3013 5.83203 10.0002C5.83203 7.69898 7.69751 5.8335 9.9987 5.8335C12.2999 5.8335 14.1654 7.69898 14.1654 10.0002ZM12.4987 10.0002C12.4987 11.3809 11.3794 12.5002 9.9987 12.5002C8.61795 12.5002 7.4987 11.3809 7.4987 10.0002C7.4987 8.61941 8.61795 7.50016 9.9987 7.50016C11.3794 7.50016 12.4987 8.61941 12.4987 10.0002Z" fill="#777E91"/>
</svg>
