<?xml version="1.0" encoding="UTF-8"?>
<svg width="30px" height="30px" viewBox="0 0 30 30" version="1.1" xmlns="http://www.w3.org/2000/svg" xmlns:xlink="http://www.w3.org/1999/xlink">
    <!-- Generator: Sketch 52 (66869) - http://www.bohemiancoding.com/sketch -->
    <title>sc-active</title>
    <desc>Created with Sketch.</desc>
    <g id="sc-active" stroke="none" stroke-width="1" fill="none" fill-rule="evenodd">
        <path d="M14.1763421,19.32892 L14.1763421,9.69095827 C14.1763421,9.38387248 14.2678632,9.20080737 14.4509512,9.14173249 C14.8466188,9.04724924 15.2393548,9 15.6291211,9 C16.532659,9 17.3742285,9.21260255 18.1537534,9.63780764 C18.9332936,10.0630127 19.5637302,10.643238 20.0450252,11.378491 C20.5263354,12.1137516 20.8053839,12.9242836 20.8821477,13.8101402 C21.2423765,13.6565897 21.6262338,13.5798182 22.0337194,13.5798182 C22.8605088,13.5798182 23.5677169,13.8721543 24.1553131,14.4568037 C24.7429246,15.041476 25.036738,15.744237 25.036738,16.5651326 C25.036738,17.391922 24.7429246,18.0976375 24.1553131,18.6822869 C23.5677169,19.2669439 22.8634709,19.5592724 22.0425753,19.5592724 L14.3357559,19.5504165 C14.2825901,19.5327047 14.2427195,19.5002052 14.2161518,19.4529712 C14.1895688,19.4057448 14.1763421,19.3643512 14.1763421,19.32892 Z M12.103452,19.0720303 C12.103452,19.3968432 12.321956,19.5592572 12.7589715,19.5592572 C13.1959794,19.5592572 13.4144833,19.3968432 13.4144833,19.0720303 L13.4144833,10.2136087 C13.4144833,9.71753359 13.2638873,9.43702311 12.9627029,9.37205445 C12.7678122,9.32480521 12.5758683,9.38091797 12.3869018,9.54036988 C12.1979201,9.69981417 12.1034292,9.92421951 12.1034292,10.2136087 L12.1034292,19.0720303 L12.103452,19.0720303 Z M10.0660161,19.0454474 C10.0660161,19.2167173 10.1280226,19.3451698 10.2520433,19.4308124 C10.376064,19.5164321 10.5355159,19.5592572 10.7304142,19.5592572 C10.9193807,19.5592572 11.0744085,19.5164321 11.1954671,19.4308124 C11.3165409,19.3451698 11.3770778,19.2167173 11.3770778,19.0454474 L11.3770778,13.579803 C11.3770778,13.3967379 11.3135788,13.2402253 11.1866188,13.1103032 C11.0596512,12.9803887 10.9075856,12.9154353 10.7304142,12.9154353 C10.5473263,12.9154353 10.3908365,12.9803887 10.260922,13.1103032 C10.1309999,13.2402253 10.0660313,13.3967379 10.0660313,13.579803 L10.0660313,19.0454474 L10.0660161,19.0454474 Z M8.03743598,18.7619824 C8.03743598,18.9332676 8.09797288,19.0616896 8.21903906,19.1473398 C8.34011286,19.2329824 8.49513301,19.2757846 8.68409952,19.2757846 C8.87899026,19.2757846 9.03694969,19.2329595 9.1580311,19.1473398 C9.27908967,19.0617124 9.33962657,18.9332676 9.33962657,18.7619824 L9.33962657,12.7736876 C9.33962657,12.5965162 9.27612755,12.4444354 9.14916758,12.317483 C9.02219239,12.190523 8.86717224,12.127024 8.68409952,12.127024 C8.50693581,12.127024 8.35485493,12.190523 8.22789497,12.317483 C8.10091977,12.4444506 8.03743598,12.5965162 8.03743598,12.7736876 L8.03743598,18.7619824 Z M6,17.6635385 C6,17.8997695 6.08564258,18.0783876 6.25689728,18.199469 C6.42816721,18.3205276 6.61123232,18.3633298 6.80611545,18.3279138 C6.98918055,18.2924826 7.117633,18.2275139 7.19147279,18.1330307 C7.26528212,18.0385474 7.30220582,17.8820348 7.30220582,17.6635309 L7.30220582,15.0945961 C7.30220582,14.9115082 7.23872964,14.7564804 7.11175445,14.6295281 C6.98479448,14.5025529 6.82976672,14.4390691 6.64667877,14.4390691 C6.46951505,14.4390691 6.31744941,14.5025529 6.19047421,14.6295281 C6.06349902,14.7564804 6,14.9115082 6,15.0945961 L6,17.6635385 Z" id="Fill-1" fill="#FF4F26"></path>
    </g>
</svg>