<?xml version="1.0" encoding="UTF-8"?>
<svg width="30px" height="30px" viewBox="0 0 30 30" version="1.1" xmlns="http://www.w3.org/2000/svg" xmlns:xlink="http://www.w3.org/1999/xlink">
    <!-- Generator: Sketch 52 (66869) - http://www.bohemiancoding.com/sketch -->
    <title>vk-active</title>
    <desc>Created with Sketch.</desc>
    <g id="vk-active" stroke="none" stroke-width="1" fill="none" fill-rule="evenodd">
        <path d="M14.5868442,20.3312477 L15.561218,20.3312477 C15.7256824,20.3138704 15.881458,20.2462228 16.0080646,20.1382348 C16.0986751,20.0147314 16.1464629,19.8645413 16.144601,19.7106275 C16.144601,19.7106275 16.144601,18.4011188 16.7335696,18.2087265 C17.3237795,18.0163342 18.0995548,19.449967 18.9187735,20.03335 C19.246461,20.234431 19.620695,20.3473839 20.0048589,20.3622788 L22.183236,20.3622788 C22.183236,20.3622788 23.3251772,20.2933899 22.8038562,19.3941112 C22.3731457,18.6859835 21.8257587,18.0560539 21.1834167,17.5322505 C19.8186728,16.29101 19.9986527,16.4709898 21.6488819,14.2739942 C22.6549073,12.9396607 23.0521043,12.120442 22.9279802,11.7915132 C22.8038562,11.4625845 22.0715243,11.5494713 22.0715243,11.5494713 L19.5890433,11.5494713 C19.4798142,11.5364383 19.370585,11.5556775 19.2719064,11.6053272 C19.179434,11.6723541 19.1049596,11.7623441 19.0553099,11.8659877 C18.8052,12.4959172 18.511026,13.1078488 18.1740292,13.6968174 C17.0817376,15.5586781 16.6410972,15.6517711 16.4673235,15.5586781 C16.051508,15.2918114 16.1570134,14.4787989 16.1570134,13.9016221 C16.1570134,12.1018234 16.4300863,11.3508729 15.6226594,11.1584806 C15.2403573,11.0579401 14.8456428,11.0120142 14.4503078,11.0219441 C13.7645224,10.9592615 13.0731514,11.0312534 12.4146734,11.232955 C12.1353943,11.3694915 11.9181772,11.6735954 12.0485074,11.692214 C12.3277865,11.71828 12.5872058,11.8492309 12.7746331,12.0583799 C12.9440624,12.4034448 13.0266049,12.7845056 13.016675,13.1692902 C13.016675,13.1692902 13.1594177,15.2856052 12.6815401,15.5524719 C12.3526113,15.7324518 11.8933524,15.3662858 10.9189786,13.6906112 C10.5888086,13.1035044 10.2964965,12.4959172 10.043904,11.8721939 C9.99797815,11.7660678 9.92846868,11.6723541 9.83909937,11.599121 C9.72490525,11.522164 9.59581624,11.4694113 9.46052102,11.4439659 L7.12698892,11.4439659 C7.12698892,11.4439659 6.77944158,11.4439659 6.64911133,11.6053272 C6.51878108,11.7666884 6.64911133,12.0211427 6.64911133,12.0211427 C6.64911133,12.0211427 8.46752864,16.3034224 10.534194,18.469387 C11.5675267,19.6256025 13.0359142,20.3002167 14.5868442,20.3312477" id="Fill-1" fill="#FF4F26"></path>
    </g>
</svg>