<svg width="16" height="16" viewBox="0 0 16 16" fill="none" xmlns="http://www.w3.org/2000/svg">
<path fill-rule="evenodd" clip-rule="evenodd" d="M7.9987 13.3335C10.9442 13.3335 13.332 10.9457 13.332 8.00016C13.332 5.05464 10.9442 2.66683 7.9987 2.66683C5.05318 2.66683 2.66536 5.05464 2.66536 8.00016C2.66536 10.9457 5.05318 13.3335 7.9987 13.3335ZM7.9987 14.6668C11.6806 14.6668 14.6654 11.6821 14.6654 8.00016C14.6654 4.31826 11.6806 1.3335 7.9987 1.3335C4.3168 1.3335 1.33203 4.31826 1.33203 8.00016C1.33203 11.6821 4.3168 14.6668 7.9987 14.6668Z" fill="#777E91"/>
<path fill-rule="evenodd" clip-rule="evenodd" d="M9.16575 12.1179C9.65822 11.133 10.0013 9.679 10.0013 8.00016C10.0013 6.32132 9.65822 4.86734 9.16575 3.8824C8.63341 2.81771 8.14467 2.66683 8.0013 2.66683C7.85793 2.66683 7.36919 2.81771 6.83685 3.8824C6.34438 4.86734 6.0013 6.32132 6.0013 8.00016C6.0013 9.679 6.34438 11.133 6.83685 12.1179C7.36919 13.1826 7.85793 13.3335 8.0013 13.3335C8.14467 13.3335 8.63341 13.1826 9.16575 12.1179ZM8.0013 14.6668C9.84225 14.6668 11.3346 11.6821 11.3346 8.00016C11.3346 4.31826 9.84225 1.3335 8.0013 1.3335C6.16035 1.3335 4.66797 4.31826 4.66797 8.00016C4.66797 11.6821 6.16035 14.6668 8.0013 14.6668Z" fill="#777E91"/>
<path fill-rule="evenodd" clip-rule="evenodd" d="M14.6324 8.66683C14.6542 8.44756 14.6654 8.22516 14.6654 8.00016C14.6654 7.77516 14.6542 7.55277 14.6324 7.3335H1.36495C1.34318 7.55277 1.33203 7.77516 1.33203 8.00016C1.33203 8.22516 1.34318 8.44756 1.36495 8.66683H14.6324Z" fill="#777E91"/>
</svg>
