<?xml version="1.0" encoding="UTF-8"?>
<svg width="20px" height="20px" viewBox="0 0 20 20" version="1.1" xmlns="http://www.w3.org/2000/svg" xmlns:xlink="http://www.w3.org/1999/xlink">
    <title>icon-photo</title>
    <g id="icon-photo" stroke="none" stroke-width="1" fill="none" fill-rule="evenodd">
        <path d="M10.7492932,0.0136065619 L10.8079298,0.032303585 C15.952556,0.443691997 20,4.7494564 20,10.0001324 C20,15.5221748 15.5220424,20.0001324 10,20.0001324 C4.47732798,20.0001324 0,15.5224952 0,10.0001324 C0,4.47714004 4.47700763,0.000132413387 10,0.000132413387 C10.176088,0.000132413387 10.3511138,0.00468469029 10.5249661,0.0136779788 L10.4879927,0.0218187666 C10.5760478,-0.00499600584 10.6657913,-0.00632415306 10.7492932,0.0136065619 Z M6.444,11.719 L4.70245777,17.276431 C6.18873495,18.3604289 8.01970111,19.0001324 10,19.0001324 C11.5864808,19.0001324 13.0772196,18.589427 14.3716714,17.868561 L6.444,11.719 Z M18.7243438,7.78116273 L10.79,13.825 L15.2681089,17.2975193 C17.4620014,15.7107745 18.9123461,13.1590922 18.9961621,10.2654531 L19,10.0001324 C19,9.23438181 18.9043485,8.49096016 18.7243438,7.78116273 Z M6.908,6.896 L1.54951194,6.89627347 C1.19404899,7.86379828 1,8.90929627 1,10.0001324 C1,12.6017267 2.10411674,14.94571 3.86932677,16.5889393 L6.908,6.896 Z M12.058,6.896 L7.955,6.896 L6.763,10.701 L9.973,13.191 L13.221,10.716 L12.058,6.896 Z M11.3386903,1.09903412 L14.07,10.069 L18.4025853,6.76922486 C17.2582844,3.79549556 14.5807163,1.58258286 11.3386903,1.09903412 Z M10,1.00013241 C6.50760821,1.00013241 3.47993572,2.98914835 1.98794494,5.8962178 L11.754,5.896 L10.264,1.003 Z" id="Combined-Shape" fill="#FFFFFF" fill-rule="nonzero"></path>
    </g>
</svg>