<?xml version="1.0" encoding="UTF-8"?>
<svg width="20px" height="20px" viewBox="0 0 20 20" version="1.1" xmlns="http://www.w3.org/2000/svg" xmlns:xlink="http://www.w3.org/1999/xlink">
    <title>icon-music</title>
    <g id="icon-music" stroke="none" stroke-width="1" fill="none" fill-rule="evenodd">
        <path d="M16.5458909,1.5 L16.5857652,1.50236777 C16.5992432,1.50345263 16.6126126,1.50508342 16.6258456,1.50724221 L16.5458909,1.5 C16.593539,1.5 16.6396304,1.50666495 16.6832837,1.51911342 C16.6903072,1.52215952 16.697551,1.52441923 16.7047316,1.52683952 C16.7249389,1.53253146 16.7444086,1.54048166 16.7632219,1.54957583 C16.7701881,1.55413179 16.7774194,1.55784888 16.7845541,1.56173763 C16.8787254,1.61185403 16.9544012,1.69225856 16.9996318,1.78966896 C17.0027648,1.7982563 17.0064531,1.8068172 17.0099122,1.81551536 C17.0167612,1.83060031 17.0221661,1.84643647 17.0267775,1.86260719 C17.0290822,1.87347216 17.0317588,1.88412295 17.0341022,1.89493181 C17.0369465,1.90532815 17.0373994,1.90772327 17.0378352,1.91012437 L17.04,1.941 L17.0452724,1.98447369 C17.0453867,1.98783908 17.0454667,1.99120027 17.0455126,1.99455686 L17.0458909,2 L17.0458909,12.6094545 C17.0458909,14.0967145 15.5916885,15.2607273 13.8520727,15.2607273 C12.1124569,15.2607273 10.6582545,14.0967145 10.6582545,12.6094545 C10.6582545,11.1143284 12.1096864,9.95090909 13.8520727,9.95090909 C14.6955549,9.95090909 15.4708523,10.2235551 16.0463117,10.6744917 L16.045,2.62 L7.887,4.389 L7.88763636,15.3041455 C7.88763636,16.7912523 6.43370493,17.9539636 4.69381818,17.9539636 C2.95393143,17.9539636 1.5,16.7912523 1.5,15.3041455 C1.5,13.8088658 2.95170395,12.6441455 4.69381818,12.6441455 C5.53716868,12.6441455 6.31246184,12.9170964 6.88795196,13.3683649 L6.88763636,3.98632727 C6.88763636,3.7804243 7.01326334,3.59890439 7.19873528,3.52333965 L7.28169544,3.49767963 L16.4395136,1.51222508 C16.4662635,1.50571633 16.4904369,1.50243129 16.5150927,1.50093303 L16.4395136,1.51222508 C16.4705335,1.50549985 16.5015049,1.50181138 16.532118,1.50096026 L16.5458909,1.5 L16.5458909,1.5 Z M4.69381818,13.6441455 C3.46153302,13.6441455 2.5,14.4155955 2.5,15.3041455 C2.5,16.1836529 3.46324767,16.9539636 4.69381818,16.9539636 C5.92438869,16.9539636 6.88763636,16.1836529 6.88763636,15.3041455 C6.88763636,14.4155955 5.92610335,13.6441455 4.69381818,13.6441455 Z M13.8520727,10.9509091 C12.6193687,10.9509091 11.6582545,11.7213061 11.6582545,12.6094545 C11.6582545,13.489364 12.6219195,14.2607273 13.8520727,14.2607273 C15.082226,14.2607273 16.0458909,13.489364 16.0458909,12.6094545 C16.0458909,11.7213061 15.0847767,10.9509091 13.8520727,10.9509091 Z" id="Combined-Shape" fill="#FFFFFF" fill-rule="nonzero"></path>
    </g>
</svg>