<?xml version="1.0" encoding="UTF-8"?>
<svg width="20px" height="20px" viewBox="0 0 20 20" version="1.1" xmlns="http://www.w3.org/2000/svg" xmlns:xlink="http://www.w3.org/1999/xlink">
    <title>icon-fashion</title>
    <g id="icon-fashion" stroke="none" stroke-width="1" fill="none" fill-rule="evenodd">
        <path d="M9.99322376,0 C11.4229062,0 12.7064942,0.325577196 13.823945,0.868688156 C14.5004023,1.19746446 14.9766142,1.53067396 15.2373821,1.76454651 C15.2479568,1.77403052 15.2580781,1.78391955 15.2677311,1.79417979 C15.2756989,1.80262863 15.2832508,1.81124719 15.2904968,1.82010923 C15.299612,1.83123048 15.3085176,1.84314019 15.3168618,1.85539804 C15.3246166,1.86678107 15.3319989,1.87864554 15.3388794,1.89080655 C15.3598797,1.92812442 15.3758604,1.96735571 15.3867234,2.0081597 C15.3904472,2.02159411 15.3935963,2.03578462 15.3961232,2.0501502 C15.4010083,2.07883432 15.4035458,2.10766337 15.4035458,2.136774 L15.4035458,2.136774 L15.403,3.987 L19.6864744,5.85551828 C19.8427051,5.92366073 19.9515964,6.06560438 19.9795198,6.22999382 L19.9865785,6.31382126 L19.9865785,18.6226891 C19.9865785,19.3955554 19.5335763,19.9336546 18.7990286,19.9942862 L18.6580435,20 L1.63428439,20 C0.83547152,20 0.0877860813,19.5059645 0.00717539323,18.757385 L0,18.6226891 L0,6.31382126 C0,6.14190768 0.0880520717,5.98425435 0.229451916,5.89331822 L0.304436818,5.85365277 L4.582,4.035 L4.58290174,2.136774 C4.58290174,2.02313731 4.62156857,1.91379142 4.69117765,1.82604038 L4.74906542,1.76454651 C5.00983331,1.53067396 5.48604522,1.19746446 6.16250246,0.868688156 C7.27995326,0.325577196 8.56354136,0 9.99322376,0 Z M15.403,5.078 L15.4035458,10.9753536 C15.4035458,11.3849038 14.9381273,11.6207492 14.6078639,11.3785561 L14.6078639,11.3785561 L9.993,7.994 L5.37858357,11.3785561 C5.07191047,11.6034497 4.64870053,11.4161571 4.58980663,11.0603447 L4.58980663,11.0603447 L4.58290174,10.9753536 L4.582,5.122 L1,6.643 L1,18.6226891 C1,18.782883 1.22169322,18.9564099 1.51937594,18.9929938 L1.63428439,19 L18.6580435,19 C18.8760472,19 18.9660719,18.9284407 18.983386,18.7111494 L18.9865785,18.6226891 L18.986,6.641 L15.403,5.078 Z M9.99322376,14.6083208 C10.5185738,14.6083208 10.9432238,15.0329708 10.9432238,15.5583208 C10.9432238,16.0836708 10.5185738,16.5083208 9.99322376,16.5083208 C9.46787376,16.5083208 9.04322376,16.0836708 9.04322376,15.5583208 C9.04322376,15.0329708 9.46787376,14.6083208 9.99322376,14.6083208 Z M9.99322376,10.6800632 C10.5185738,10.6800632 10.9432238,11.1047132 10.9432238,11.6300632 C10.9432238,12.1554132 10.5185738,12.5800632 9.99322376,12.5800632 C9.46787376,12.5800632 9.04322376,12.1554132 9.04322376,11.6300632 C9.04322376,11.1047132 9.46787376,10.6800632 9.99322376,10.6800632 Z M5.58242728,4.12016701 L5.582,9.989 L9.09733377,7.4103034 C9.01646276,7.35820747 8.93663108,7.3057928 8.85783265,7.25306507 C7.37705906,6.2622098 6.30630939,5.19738068 5.58242728,4.12016701 Z M11.3264204,7.22197648 C11.2062697,7.30318073 11.0836507,7.3836381 10.9585409,7.46332782 L14.403,9.988 L14.4040199,4.30620696 C13.7020159,5.30933288 12.6935336,6.29800851 11.3264204,7.22197648 Z M9.99322376,1 C8.72325203,1 7.58697206,1.28821306 6.59963378,1.76808585 C6.2558596,1.93516929 5.95611637,2.11353479 5.70291758,2.29070013 L5.743,2.262 L5.75135958,2.28600067 C5.76125923,2.31445512 5.77234166,2.34518569 5.78468665,2.37812112 C5.89328022,2.66783989 6.0534616,2.99497002 6.27539988,3.35085275 C6.92276201,4.38891161 7.94046729,5.43598469 9.41395918,6.42196743 C9.62387986,6.56243523 9.8419319,6.70074549 10.0682673,6.83676799 L9.74513356,7.02774482 C10.1055027,6.82179678 10.4457551,6.61020663 10.766462,6.3934558 C12.2188948,5.4118242 13.2157271,4.36969566 13.8435734,3.33674377 C14.0587301,2.98276123 14.2128393,2.65742739 14.316182,2.36935107 L14.33,2.324 L14.2835299,2.29070013 C14.0936308,2.15782613 13.8775505,2.02427703 13.6363493,1.89531878 L13.3868137,1.76808585 C12.3994755,1.28821306 11.2631955,1 9.99322376,1 Z" id="Combined-Shape" fill="#000000" fill-rule="nonzero"></path>
    </g>
</svg>