<?xml version="1.0" encoding="UTF-8"?>
<svg width="20px" height="20px" viewBox="0 0 20 20" version="1.1" xmlns="http://www.w3.org/2000/svg" xmlns:xlink="http://www.w3.org/1999/xlink">
    <title>icon-sport</title>
    <g id="icon-sport" stroke="none" stroke-width="1" fill="none" fill-rule="evenodd">
        <path d="M10,0 C15.5228735,0 20,4.47701982 20,10 C20,15.5229802 15.5228735,20 10,20 C8.20000426,20 6.51108942,19.5244439 5.05204768,18.6921127 C4.98881525,18.6720743 4.92955575,18.6385222 4.87827967,18.5931011 C1.95713487,16.8459845 0,13.6516083 0,10 C0,4.47701982 4.47712646,0 10,0 Z M11.3022135,9.86122084 C11.113955,9.93732126 10.9487952,10.0127662 10.8074326,10.083756 L10.5566438,10.2186696 L10.496,10.254 L10.4982035,10.2860688 C10.5201184,10.9206059 10.4356757,11.7105698 10.1765415,12.6032658 C9.74883453,14.0766809 8.91903994,15.5269217 7.59868811,16.8752172 C7.16889336,17.314108 6.69139969,17.7369844 6.1644002,18.1422455 C7.19276508,18.6296699 8.33087174,18.9263975 9.53110959,18.9879964 L9.50446804,19.0086167 C10.7613339,18.0663098 11.7505925,16.9783769 12.5003069,15.7722612 C13.3216785,14.4508656 13.8274557,13.0376691 14.0763129,11.6004333 C14.2278327,10.7253548 14.2697717,9.94064354 14.2442343,9.29646929 C13.1728354,9.29801958 12.1905712,9.50211679 11.3022135,9.86122084 Z M15.2471267,9.34759905 L15.2537599,9.5648298 C15.2894282,11.6007759 14.7856631,13.9898919 13.3496027,16.3001784 C12.7613307,17.246571 12.0380346,18.1252007 11.1703275,18.9236276 C15.441096,18.3702422 18.7723029,14.8214758 18.9888031,10.4528995 L19.2783741,10.5917141 C17.8326724,9.8768412 16.4867522,9.48230782 15.2471267,9.34759905 Z M1.72456791,6.45513231 L1.7072602,6.49674012 C1.25183787,7.57349121 1,8.75732748 1,10 C1,13.2051191 2.67531315,16.018839 5.19801565,17.6133129 L4.92622865,17.8065413 C5.67356934,17.2924358 6.32425683,16.7473633 6.88421632,16.1755529 C7.21008917,15.8427834 7.50248776,15.5043656 7.76323754,15.1615758 L7.57285623,15.0502921 L7.26089142,14.8526673 L7.08978191,14.738372 L7.08978191,14.738372 C6.31519572,14.2120099 5.54184744,13.5576105 4.81992444,12.7662638 C3.25626518,11.0522354 2.16034838,8.95581953 1.72456791,6.45513231 Z M5.50043793,2.20468582 L5.38629526,2.27089489 C4.25262062,2.94906108 3.28061231,3.86957677 2.54183401,4.96088495 C2.54884243,4.98806058 2.55362965,5.01682487 2.55588983,5.04638684 C2.77479067,7.9094938 3.86863153,10.2397185 5.55869387,12.0923056 C6.2249966,12.8226833 6.93903305,13.4268936 7.65183158,13.9112685 L7.8058938,14.0142288 L8.08384746,14.1906886 L8.31768715,14.3284017 L8.32766754,14.3336797 C8.72791644,13.6730835 9.01996071,13.0004674 9.21618503,12.3244909 C9.44063981,11.5512627 9.51486683,10.875292 9.49961754,10.3461985 L9.49590777,10.2887432 C8.95883265,9.95540354 8.2733387,9.36743392 7.59442485,8.47579039 C6.38227043,6.88382162 5.61829328,4.8086643 5.50043793,2.20468582 Z M8.63652277,5.53328881 C8.30429194,5.65797211 7.99960207,5.78910554 7.72478844,5.92152476 L7.35911315,6.10747203 C7.64296975,6.75785691 7.98970344,7.34421068 8.39004305,7.869992 C8.80192718,8.41093519 9.24164717,8.84655887 9.67900248,9.1857636 C9.79152245,9.27303202 9.89180943,9.345096 9.97721981,9.40268925 C10.2080095,9.25983333 10.5272075,9.09589187 10.9274416,8.93410378 C13.1458064,8.03736617 15.8656225,8.00335177 18.9748962,9.34902307 C18.8932372,8.17933852 18.5860732,7.07137261 18.0978322,6.06776123 L18.2373481,6.13787115 C14.8819686,4.39168479 11.5855314,4.42655193 8.63652277,5.53328881 Z M10,1 C8.75347546,1 7.56614272,1.25340532 6.48670812,1.71151417 L6.48476611,1.39186429 C6.47588513,2.81374533 6.66110463,4.06655699 7.00633526,5.1630165 C7.37218132,4.97230913 7.80296644,4.7780124 8.28516035,4.59704929 C11.0331627,3.5657483 14.069911,3.39337621 17.1774436,4.5682281 C15.5345354,2.40091375 12.9308842,1 10,1 Z" id="Combined-Shape" fill="#FFFFFF" fill-rule="nonzero"></path>
    </g>
</svg>