<?xml version="1.0" encoding="UTF-8"?>
<svg width="20px" height="20px" viewBox="0 0 20 20" version="1.1" xmlns="http://www.w3.org/2000/svg" xmlns:xlink="http://www.w3.org/1999/xlink">
    <title>icon-video</title>
    <g id="icon-video" stroke="none" stroke-width="1" fill="none" fill-rule="evenodd">
        <path d="M10.0004,0 C15.5224,0 20.0004,4.477 20.0004,10 C20.0004,15.523 15.5224,20 10.0004,20 C4.4774,20 0.0004,15.523 0.0004,10 C0.0004,4.477 4.4774,0 10.0004,0 Z M10.0004,1 C5.02968475,1 1.0004,5.02928475 1.0004,10 C1.0004,14.9707153 5.02968475,19 10.0004,19 C14.9704761,19 19.0004,14.9703544 19.0004,10 C19.0004,5.02964556 14.9704761,1 10.0004,1 Z M7.5258,6.6598 C7.5258,6.27855453 7.93536232,6.03757084 8.26862803,6.22272501 L8.26862803,6.22272501 L13.918628,9.36172501 C14.2534405,9.54773853 14.2633512,10.025701 13.9365372,10.2254335 L13.9365372,10.2254335 L8.28653722,13.6784335 C7.953361,13.8820542 7.5258,13.6422713 7.5258,13.2518 L7.5258,13.2518 Z M8.525,7.509 L8.525,12.361 L12.683,9.819 L8.525,7.509 Z" id="Combined-Shape" fill="#FFFFFF" fill-rule="nonzero"></path>
    </g>
</svg>