<?xml version="1.0" encoding="UTF-8"?>
<svg width="20px" height="20px" viewBox="0 0 20 20" version="1.1" xmlns="http://www.w3.org/2000/svg" xmlns:xlink="http://www.w3.org/1999/xlink">
    <title>icon-game</title>
    <g id="icon-game" stroke="none" stroke-width="1" fill="none" fill-rule="evenodd">
        <path d="M9.99643254,0 L10.3476806,0.00224324876 C13.0304975,0.0571379605 15.4553442,0.979190393 17.2345544,2.76746895 C17.4289696,2.96287504 17.4285681,3.27876461 17.2336568,3.47367588 L17.2336568,3.47367588 L10.7068784,9.99870461 L17.2336324,16.5255837 C17.4069073,16.6988347 17.4264859,16.9676914 17.2921469,17.1625451 L17.2921469,17.1625451 L17.2345544,17.2318151 C15.3779872,19.0978449 12.8184207,20.0206871 9.99643396,19.999284 C7.33302619,19.9797077 4.78387566,18.950025 2.91281594,17.0702128 C-0.970967486,13.1644306 -0.970967486,6.8348534 2.91298898,2.92889726 C4.78364979,1.04948596 7.33361795,0.019579519 9.99643254,0 L9.99643254,0 Z M10.003901,0.999972104 C7.59969269,1.01765012 5.30295056,1.94528112 3.62191685,3.63417821 C0.125998875,7.14989799 0.125998875,12.849386 3.62174381,16.3649319 C5.30318581,18.0542393 7.59911156,18.9816365 10.003901,18.9993119 C12.3480694,19.017091 14.4689665,18.3274495 16.0796031,16.9414476 L16.0796031,16.9414476 L16.1608784,16.8677046 L9.64657993,10.3536948 C9.47299312,10.180132 9.45369706,9.91069309 9.58869763,9.715815 L9.58869763,9.715815 L9.64655552,9.64656363 L16.1608784,3.13070461 L16.0796031,3.05783646 C14.5456635,1.73783466 12.5489026,1.04945224 10.3372323,1.00224343 L10.3372323,1.00224343 Z M8.69032591,3.9310455 C9.32842326,3.9310455 9.8448849,4.44750714 9.8448849,5.08560449 C9.8448849,5.72365931 9.32846665,6.2411135 8.69032591,6.2411135 C8.05222856,6.2411135 7.5348169,5.72370184 7.5348169,5.08560449 C7.5348169,4.44746375 8.0522711,3.9310455 8.69032591,3.9310455 Z" id="Combined-Shape" fill="#FFFFFF" fill-rule="nonzero"></path>
    </g>
</svg>