<?xml version="1.0" encoding="UTF-8"?>
<svg width="20px" height="20px" viewBox="0 0 20 20" version="1.1" xmlns="http://www.w3.org/2000/svg" xmlns:xlink="http://www.w3.org/1999/xlink">
    <title>icon-art</title>
    <g id="icon-art" stroke="none" stroke-width="1" fill="none" fill-rule="evenodd">
        <path d="M9.99905,0 C15.5337728,0 20,4.45450563 20,10 C20,12.6957844 17.6573995,15.0866 13.2813,15.0866 L13.2813,15.0866 L13.0774077,15.0889381 C12.1631365,15.1106056 11.7651485,15.2806897 11.678274,15.5080207 C11.6169121,15.668591 11.642774,15.890761 11.7862197,16.3382798 L11.7862197,16.3382798 L11.88664,16.635143 L12.0384165,17.0586343 C12.3558184,17.9619567 12.424252,18.51506 12.1082321,19.052536 C11.722106,19.7092462 10.8415977,20 9.36635,20 C3.85718805,20 0,15.7013033 0,10 C0,4.47811228 4.47780298,0 9.99905,0 Z M9.99905,1 C5.03010319,1 1,5.03038157 1,10 C1,15.1717233 4.43508374,19 9.36635,19 C10.5219176,19 11.0892187,18.8126708 11.2461981,18.5456857 C11.358259,18.3550963 11.3170815,18.022286 11.0960534,17.3932105 L11.0960534,17.3932105 L10.936203,16.947376 L10.8159177,16.591787 C10.6060286,15.9344509 10.5804976,15.5793133 10.7441589,15.1510487 C11.0262609,14.4128516 11.8521553,14.0866 13.2813,14.0866 L13.2813,14.0866 L13.5788281,14.082604 C17.1991615,13.9844238 19,12.0914817 19,10 C19,5.00737952 14.9820755,1 9.99905,1 Z M15.89665,7.534735 C16.8466903,7.534735 17.6252242,8.26576688 17.7007024,9.1962814 L17.7067,9.344785 L17.7007005,9.49319683 C17.6251983,10.4231913 16.8464319,11.154835 15.89665,11.154835 C14.8974886,11.154835 14.08565,10.3438086 14.08565,9.344785 C14.08565,8.34508312 14.8972161,7.534735 15.89665,7.534735 Z M4.43072,7.20727 C5.38082609,7.20727 6.16015811,7.93836415 6.23571605,8.86882574 L6.24172,9.01732 L6.23571411,9.16572247 C6.16013224,10.0956639 5.38056739,10.82737 4.43072,10.82737 C3.43162763,10.82737 2.62067,10.0164124 2.62067,9.01732 C2.62067,8.01754955 3.4313555,7.20727 4.43072,7.20727 Z M15.89665,8.534735 C15.4491649,8.534735 15.08565,8.89770436 15.08565,9.344785 C15.08565,9.79129969 15.4495494,10.154835 15.89665,10.154835 C16.3096102,10.154835 16.6504025,9.84565408 16.7003885,9.44635929 L16.7067,9.344785 L16.7003948,9.24309945 C16.650457,8.84343383 16.3099647,8.534735 15.89665,8.534735 Z M4.43072,8.20727 C3.98352816,8.20727 3.62067,8.56994646 3.62067,9.01732 C3.62067,9.46412763 3.98391237,9.82737 4.43072,9.82737 C4.84395075,9.82737 5.18532355,9.51793913 5.23539729,9.11883661 L5.24172,9.01732 L5.23540358,8.91569213 C5.18537813,8.51621875 4.84430554,8.20727 4.43072,8.20727 Z M12.948325,3.276265 C13.8983653,3.276265 14.6768992,4.00729688 14.7523774,4.9378114 L14.758375,5.086315 L14.7523755,5.23472683 C14.6768733,6.16472133 13.8981069,6.896365 12.948325,6.896365 C11.9491636,6.896365 11.137325,6.08533865 11.137325,5.086315 C11.137325,4.08661312 11.9488911,3.276265 12.948325,3.276265 Z M7.706605,2.948705 C8.65671109,2.948705 9.43604311,3.67979915 9.51160105,4.61026074 L9.517605,4.758755 L9.51159911,4.90715747 C9.43601724,5.83709893 8.65645239,6.568805 7.706605,6.568805 C6.70751263,6.568805 5.896555,5.75784737 5.896555,4.758755 C5.896555,3.75898455 6.7072405,2.948705 7.706605,2.948705 Z M12.948325,4.276265 C12.5008399,4.276265 12.137325,4.63923436 12.137325,5.086315 C12.137325,5.53282969 12.5012244,5.896365 12.948325,5.896365 C13.3612852,5.896365 13.7020775,5.58718408 13.7520635,5.18788929 L13.758375,5.086315 L13.7520698,4.98462945 C13.702132,4.58496383 13.3616397,4.276265 12.948325,4.276265 Z M7.706605,3.948705 C7.25941316,3.948705 6.896555,4.31138146 6.896555,4.758755 C6.896555,5.20556263 7.25979737,5.568805 7.706605,5.568805 C8.11983575,5.568805 8.46120855,5.25937413 8.51128229,4.86027161 L8.517605,4.758755 L8.51128858,4.65712713 C8.46126313,4.25765375 8.12019054,3.948705 7.706605,3.948705 Z" id="Combined-Shape" fill="#000000" fill-rule="nonzero"></path>
    </g>
</svg>